<svg width="213" height="93" viewBox="0 0 213 93" fill="none" xmlns="http://www.w3.org/2000/svg">
<g filter="url(#filter0_ddddd_1_434)">
<rect x="28" y="5" width="157" height="48" rx="15" fill="#71AA38"/>
<path d="M75.2479 31.768C75.2479 33.528 73.8399 35.112 71.2959 35.112C68.9759 35.112 67.1839 33.896 67.1519 31.784H69.5519C69.6159 32.68 70.2079 33.272 71.2479 33.272C72.3039 33.272 72.9279 32.712 72.9279 31.912C72.9279 29.496 67.1679 30.952 67.1839 26.904C67.1839 24.888 68.8159 23.672 71.1199 23.672C73.4079 23.672 74.9759 24.84 75.1199 26.856H72.6559C72.6079 26.12 72.0159 25.544 71.0559 25.528C70.1759 25.496 69.5199 25.928 69.5199 26.84C69.5199 29.08 75.2479 27.832 75.2479 31.768ZM80.9979 27.832C79.9259 27.832 79.0779 28.52 78.9019 29.736H83.1099C83.0779 28.568 82.1499 27.832 80.9979 27.832ZM85.2059 32.216C84.7259 33.848 83.2539 35.144 81.0619 35.144C78.4859 35.144 76.6139 33.352 76.6139 30.568C76.6139 27.768 78.4379 25.992 81.0619 25.992C83.6219 25.992 85.4299 27.736 85.4299 30.376C85.4299 30.664 85.4139 30.952 85.3659 31.24H78.8859C78.9979 32.552 79.8939 33.288 81.0139 33.288C81.9739 33.288 82.5019 32.808 82.7899 32.216H85.2059ZM93.2729 35V30.104C93.2729 28.68 92.4889 27.912 91.3049 27.912C90.0889 27.912 89.3049 28.68 89.3049 30.104V35H87.0649V26.136H89.3049V27.24C89.8809 26.488 90.8409 26.008 91.9769 26.008C94.0409 26.008 95.5129 27.352 95.5129 29.8V35H93.2729ZM97.0671 30.536C97.0671 27.768 98.8591 25.992 101.131 25.992C102.299 25.992 103.419 26.536 104.027 27.368V23.16H106.299V35H104.027V33.688C103.499 34.504 102.507 35.144 101.115 35.144C98.8591 35.144 97.0671 33.304 97.0671 30.536ZM104.043 30.568C104.043 28.888 102.923 27.96 101.691 27.96C100.491 27.96 99.3551 28.856 99.3551 30.536C99.3551 32.216 100.491 33.176 101.691 33.176C102.923 33.176 104.043 32.248 104.043 30.568ZM119.611 23.816H121.851V35H119.611L114.539 27.336V35H112.299V23.816H114.539L119.611 31.496V23.816ZM132.625 30.568C132.625 33.352 130.577 35.144 128.001 35.144C125.441 35.144 123.505 33.352 123.505 30.568C123.505 27.768 125.505 25.992 128.065 25.992C130.625 25.992 132.625 27.768 132.625 30.568ZM125.777 30.568C125.777 32.328 126.801 33.192 128.001 33.192C129.185 33.192 130.321 32.328 130.321 30.568C130.321 28.792 129.217 27.944 128.033 27.944C126.849 27.944 125.777 28.792 125.777 30.568ZM135.884 35L133.276 26.136H135.548L137.116 32.888L138.812 26.136H141.18L142.844 32.872L144.412 26.136H146.556L143.964 35H141.548L139.932 28.808L138.316 35H135.884Z" fill="white"/>
</g>
<defs>
<filter id="filter0_ddddd_1_434" x="0" y="0" width="213" height="183" filterUnits="userSpaceOnUse" color-interpolation-filters="sRGB">
<feFlood flood-opacity="0" result="BackgroundImageFix"/>
<feColorMatrix in="SourceAlpha" type="matrix" values="0 0 0 0 0 0 0 0 0 0 0 0 0 0 0 0 0 0 127 0" result="hardAlpha"/>
<feOffset dy="4"/>
<feGaussianBlur stdDeviation="4.5"/>
<feColorMatrix type="matrix" values="0 0 0 0 0.498039 0 0 0 0 0.6 0 0 0 0 0.192157 0 0 0 0.27 0"/>
<feBlend mode="normal" in2="BackgroundImageFix" result="effect1_dropShadow_1_434"/>
<feColorMatrix in="SourceAlpha" type="matrix" values="0 0 0 0 0 0 0 0 0 0 0 0 0 0 0 0 0 0 127 0" result="hardAlpha"/>
<feOffset dy="16"/>
<feGaussianBlur stdDeviation="8"/>
<feColorMatrix type="matrix" values="0 0 0 0 0.498039 0 0 0 0 0.6 0 0 0 0 0.192157 0 0 0 0.23 0"/>
<feBlend mode="normal" in2="effect1_dropShadow_1_434" result="effect2_dropShadow_1_434"/>
<feColorMatrix in="SourceAlpha" type="matrix" values="0 0 0 0 0 0 0 0 0 0 0 0 0 0 0 0 0 0 127 0" result="hardAlpha"/>
<feOffset dy="37"/>
<feGaussianBlur stdDeviation="11"/>
<feColorMatrix type="matrix" values="0 0 0 0 0.498039 0 0 0 0 0.6 0 0 0 0 0.192157 0 0 0 0.14 0"/>
<feBlend mode="normal" in2="effect2_dropShadow_1_434" result="effect3_dropShadow_1_434"/>
<feColorMatrix in="SourceAlpha" type="matrix" values="0 0 0 0 0 0 0 0 0 0 0 0 0 0 0 0 0 0 127 0" result="hardAlpha"/>
<feOffset dy="65"/>
<feGaussianBlur stdDeviation="13"/>
<feColorMatrix type="matrix" values="0 0 0 0 0.498039 0 0 0 0 0.6 0 0 0 0 0.192157 0 0 0 0.04 0"/>
<feBlend mode="normal" in2="effect3_dropShadow_1_434" result="effect4_dropShadow_1_434"/>
<feColorMatrix in="SourceAlpha" type="matrix" values="0 0 0 0 0 0 0 0 0 0 0 0 0 0 0 0 0 0 127 0" result="hardAlpha"/>
<feOffset dy="102"/>
<feGaussianBlur stdDeviation="14"/>
<feColorMatrix type="matrix" values="0 0 0 0 0.498039 0 0 0 0 0.6 0 0 0 0 0.192157 0 0 0 0.01 0"/>
<feBlend mode="normal" in2="effect4_dropShadow_1_434" result="effect5_dropShadow_1_434"/>
<feBlend mode="normal" in="SourceGraphic" in2="effect5_dropShadow_1_434" result="shape"/>
</filter>
</defs>
</svg>
