<svg width="740" height="571" viewBox="0 0 740 571" fill="none" xmlns="http://www.w3.org/2000/svg">
<g clip-path="url(#clip0_1_427)">
<rect width="740" height="571" rx="40" fill="white"/>
<path d="M63.952 202.792V207H65.408V202.792L69.04 195.848H67.424L64.672 201.496L61.92 195.848H60.304L63.952 202.792ZM78.8958 202.6C78.8958 199.832 76.9598 198.088 74.4638 198.088C71.9838 198.088 70.0318 199.832 70.0318 202.6C70.0318 205.384 71.9198 207.144 74.3998 207.144C76.8958 207.144 78.8958 205.384 78.8958 202.6ZM71.5198 202.6C71.5198 200.392 72.9118 199.352 74.4478 199.352C75.9518 199.352 77.4078 200.392 77.4078 202.6C77.4078 204.824 75.9198 205.864 74.3998 205.864C72.8798 205.864 71.5198 204.824 71.5198 202.6ZM88.5861 198.232H87.1301V203.048C87.1301 204.936 86.1221 205.864 84.6181 205.864C83.1461 205.864 82.1701 204.952 82.1701 203.176V198.232H80.7301V203.368C80.7301 205.88 82.3141 207.128 84.3301 207.128C85.4981 207.128 86.5701 206.616 87.1301 205.704V207H88.5861V198.232ZM92.5005 202.232C92.5005 200.2 93.5565 199.576 94.9485 199.576H95.3325V198.072C93.9405 198.072 92.9965 198.68 92.5005 199.656V198.232H91.0445V207H92.5005V202.232ZM108.591 195.832V204.696L102.735 195.832H101.279V207H102.735V198.12L108.591 207H110.047V195.832H108.591ZM111.985 202.584C111.985 205.304 113.793 207.144 116.129 207.144C117.745 207.144 118.881 206.312 119.409 205.368V207H120.881V198.232H119.409V199.832C118.897 198.92 117.777 198.088 116.145 198.088C113.793 198.088 111.985 199.848 111.985 202.584ZM119.409 202.6C119.409 204.664 118.033 205.864 116.433 205.864C114.833 205.864 113.473 204.648 113.473 202.584C113.473 200.52 114.833 199.352 116.433 199.352C118.033 199.352 119.409 200.568 119.409 202.6ZM135.997 207H137.437V201.832C137.437 199.32 135.885 198.072 133.885 198.072C132.541 198.072 131.293 198.76 130.781 200.024C130.205 198.712 129.005 198.072 127.565 198.072C126.413 198.072 125.373 198.568 124.797 199.496V198.232H123.341V207H124.797V202.168C124.797 200.28 125.805 199.336 127.277 199.336C128.717 199.336 129.677 200.248 129.677 202.04V207H131.117V202.168C131.117 200.28 132.125 199.336 133.597 199.336C135.037 199.336 135.997 200.248 135.997 202.04V207ZM143.554 199.32C145.058 199.32 146.338 200.264 146.322 201.976H140.786C140.946 200.264 142.13 199.32 143.554 199.32ZM147.65 204.296H146.082C145.762 205.24 144.93 205.912 143.618 205.912C142.13 205.912 140.882 204.936 140.77 203.16H147.778C147.81 202.856 147.826 202.6 147.826 202.28C147.826 199.88 146.162 198.088 143.618 198.088C141.058 198.088 139.282 199.832 139.282 202.6C139.282 205.384 141.122 207.144 143.618 207.144C145.794 207.144 147.202 205.896 147.65 204.296Z" fill="#828282"/>
<path d="M63.952 272.792V277H65.408V272.792L69.04 265.848H67.424L64.672 271.496L61.92 265.848H60.304L63.952 272.792ZM78.8958 272.6C78.8958 269.832 76.9598 268.088 74.4638 268.088C71.9838 268.088 70.0318 269.832 70.0318 272.6C70.0318 275.384 71.9198 277.144 74.3998 277.144C76.8958 277.144 78.8958 275.384 78.8958 272.6ZM71.5198 272.6C71.5198 270.392 72.9118 269.352 74.4478 269.352C75.9518 269.352 77.4078 270.392 77.4078 272.6C77.4078 274.824 75.9198 275.864 74.3998 275.864C72.8798 275.864 71.5198 274.824 71.5198 272.6ZM88.5861 268.232H87.1301V273.048C87.1301 274.936 86.1221 275.864 84.6181 275.864C83.1461 275.864 82.1701 274.952 82.1701 273.176V268.232H80.7301V273.368C80.7301 275.88 82.3141 277.128 84.3301 277.128C85.4981 277.128 86.5701 276.616 87.1301 275.704V277H88.5861V268.232ZM92.5005 272.232C92.5005 270.2 93.5565 269.576 94.9485 269.576H95.3325V268.072C93.9405 268.072 92.9965 268.68 92.5005 269.656V268.232H91.0445V277H92.5005V272.232ZM107.279 265.832H101.279V277H107.279V275.8H102.735V271.96H106.799V270.76H102.735V267.032H107.279V265.832ZM122.138 277H123.578V271.832C123.578 269.32 122.026 268.072 120.026 268.072C118.682 268.072 117.434 268.76 116.922 270.024C116.346 268.712 115.146 268.072 113.706 268.072C112.554 268.072 111.514 268.568 110.938 269.496V268.232H109.482V277H110.938V272.168C110.938 270.28 111.946 269.336 113.418 269.336C114.858 269.336 115.818 270.248 115.818 272.04V277H117.258V272.168C117.258 270.28 118.266 269.336 119.738 269.336C121.178 269.336 122.138 270.248 122.138 272.04V277ZM125.422 272.584C125.422 275.304 127.23 277.144 129.566 277.144C131.182 277.144 132.318 276.312 132.846 275.368V277H134.318V268.232H132.846V269.832C132.334 268.92 131.214 268.088 129.582 268.088C127.23 268.088 125.422 269.848 125.422 272.584ZM132.846 272.6C132.846 274.664 131.47 275.864 129.87 275.864C128.27 275.864 126.91 274.648 126.91 272.584C126.91 270.52 128.27 269.352 129.87 269.352C131.47 269.352 132.846 270.568 132.846 272.6ZM136.779 277H138.235V268.232H136.779V277ZM137.531 266.808C138.059 266.808 138.491 266.376 138.491 265.816C138.491 265.256 138.059 264.824 137.531 264.824C136.971 264.824 136.539 265.256 136.539 265.816C136.539 266.376 136.971 266.808 137.531 266.808ZM140.716 277H142.172V265.16H140.716V277Z" fill="#828282"/>
<path d="M63.952 342.792V347H65.408V342.792L69.04 335.848H67.424L64.672 341.496L61.92 335.848H60.304L63.952 342.792ZM78.8958 342.6C78.8958 339.832 76.9598 338.088 74.4638 338.088C71.9838 338.088 70.0318 339.832 70.0318 342.6C70.0318 345.384 71.9198 347.144 74.3998 347.144C76.8958 347.144 78.8958 345.384 78.8958 342.6ZM71.5198 342.6C71.5198 340.392 72.9118 339.352 74.4478 339.352C75.9518 339.352 77.4078 340.392 77.4078 342.6C77.4078 344.824 75.9198 345.864 74.3998 345.864C72.8798 345.864 71.5198 344.824 71.5198 342.6ZM88.5861 338.232H87.1301V343.048C87.1301 344.936 86.1221 345.864 84.6181 345.864C83.1461 345.864 82.1701 344.952 82.1701 343.176V338.232H80.7301V343.368C80.7301 345.88 82.3141 347.128 84.3301 347.128C85.4981 347.128 86.5701 346.616 87.1301 345.704V347H88.5861V338.232ZM92.5005 342.232C92.5005 340.2 93.5565 339.576 94.9485 339.576H95.3325V338.072C93.9405 338.072 92.9965 338.68 92.5005 339.656V338.232H91.0445V347H92.5005V342.232ZM101.279 347H102.735V338.728L106.431 347H107.455L111.135 338.744V347H112.591V335.928H111.039L106.943 345.08L102.847 335.928H101.279V347ZM118.788 339.32C120.292 339.32 121.572 340.264 121.556 341.976H116.02C116.18 340.264 117.364 339.32 118.788 339.32ZM122.884 344.296H121.316C120.996 345.24 120.164 345.912 118.852 345.912C117.364 345.912 116.116 344.936 116.004 343.16H123.012C123.044 342.856 123.06 342.6 123.06 342.28C123.06 339.88 121.396 338.088 118.852 338.088C116.292 338.088 114.516 339.832 114.516 342.6C114.516 345.384 116.356 347.144 118.852 347.144C121.028 347.144 122.436 345.896 122.884 344.296ZM131.286 344.616C131.222 341.48 126.134 342.616 126.134 340.536C126.134 339.832 126.774 339.32 127.846 339.32C129.014 339.32 129.686 339.96 129.75 340.84H131.206C131.11 339.128 129.83 338.088 127.894 338.088C125.942 338.088 124.678 339.192 124.678 340.536C124.678 343.8 129.862 342.664 129.862 344.616C129.862 345.336 129.222 345.912 128.07 345.912C126.838 345.912 126.086 345.272 126.006 344.424H124.502C124.598 346.024 126.038 347.144 128.086 347.144C130.022 347.144 131.286 346.056 131.286 344.616ZM139.645 344.616C139.581 341.48 134.493 342.616 134.493 340.536C134.493 339.832 135.133 339.32 136.205 339.32C137.373 339.32 138.045 339.96 138.109 340.84H139.565C139.469 339.128 138.189 338.088 136.253 338.088C134.301 338.088 133.037 339.192 133.037 340.536C133.037 343.8 138.221 342.664 138.221 344.616C138.221 345.336 137.581 345.912 136.429 345.912C135.197 345.912 134.445 345.272 134.365 344.424H132.861C132.957 346.024 134.397 347.144 136.445 347.144C138.381 347.144 139.645 346.056 139.645 344.616ZM141.157 342.584C141.157 345.304 142.965 347.144 145.301 347.144C146.917 347.144 148.053 346.312 148.581 345.368V347H150.053V338.232H148.581V339.832C148.069 338.92 146.949 338.088 145.317 338.088C142.965 338.088 141.157 339.848 141.157 342.584ZM148.581 342.6C148.581 344.664 147.205 345.864 145.605 345.864C144.005 345.864 142.645 344.648 142.645 342.584C142.645 340.52 144.005 339.352 145.605 339.352C147.205 339.352 148.581 340.568 148.581 342.6ZM151.969 342.584C151.969 345.304 153.777 347.144 156.129 347.144C157.729 347.144 158.865 346.296 159.393 345.352V347.192C159.393 349.064 158.225 350.056 156.673 350.056C155.233 350.056 154.193 349.336 153.873 348.28H152.433C152.721 350.152 154.369 351.32 156.673 351.32C159.249 351.32 160.865 349.608 160.865 347.192V338.232H159.393V339.832C158.881 338.888 157.729 338.088 156.129 338.088C153.777 338.088 151.969 339.848 151.969 342.584ZM159.393 342.6C159.393 344.664 158.017 345.864 156.417 345.864C154.817 345.864 153.457 344.648 153.457 342.584C153.457 340.52 154.817 339.352 156.417 339.352C158.017 339.352 159.393 340.568 159.393 342.6ZM167.054 339.32C168.558 339.32 169.838 340.264 169.822 341.976H164.286C164.446 340.264 165.63 339.32 167.054 339.32ZM171.15 344.296H169.582C169.262 345.24 168.43 345.912 167.118 345.912C165.63 345.912 164.382 344.936 164.27 343.16H171.278C171.31 342.856 171.326 342.6 171.326 342.28C171.326 339.88 169.662 338.088 167.118 338.088C164.558 338.088 162.782 339.832 162.782 342.6C162.782 345.384 164.622 347.144 167.118 347.144C169.294 347.144 170.702 345.896 171.15 344.296Z" fill="#828282"/>
<rect x="40.5" y="173.5" width="659" height="54" rx="9.5" stroke="#CCCCCC"/>
<rect x="40.5" y="243.5" width="659" height="54" rx="9.5" stroke="#CCCCCC"/>
<rect x="40.5" y="313.5" width="659" height="129" rx="9.5" stroke="#CCCCCC"/>
<g filter="url(#filter0_ddddd_1_427)">
<rect x="40" y="483" width="157" height="48" rx="15" fill="#71AA38"/>
<path d="M87.2479 509.768C87.2479 511.528 85.8399 513.112 83.2959 513.112C80.9759 513.112 79.1839 511.896 79.1519 509.784H81.5519C81.6159 510.68 82.2079 511.272 83.2479 511.272C84.3039 511.272 84.9279 510.712 84.9279 509.912C84.9279 507.496 79.1679 508.952 79.1839 504.904C79.1839 502.888 80.8159 501.672 83.1199 501.672C85.4079 501.672 86.9759 502.84 87.1199 504.856H84.6559C84.6079 504.12 84.0159 503.544 83.0559 503.528C82.1759 503.496 81.5199 503.928 81.5199 504.84C81.5199 507.08 87.2479 505.832 87.2479 509.768ZM92.9979 505.832C91.9259 505.832 91.0779 506.52 90.9019 507.736H95.1099C95.0779 506.568 94.1499 505.832 92.9979 505.832ZM97.2059 510.216C96.7259 511.848 95.2539 513.144 93.0619 513.144C90.4859 513.144 88.6139 511.352 88.6139 508.568C88.6139 505.768 90.4379 503.992 93.0619 503.992C95.6219 503.992 97.4299 505.736 97.4299 508.376C97.4299 508.664 97.4139 508.952 97.3659 509.24H90.8859C90.9979 510.552 91.8939 511.288 93.0139 511.288C93.9739 511.288 94.5019 510.808 94.7899 510.216H97.2059ZM105.273 513V508.104C105.273 506.68 104.489 505.912 103.305 505.912C102.089 505.912 101.305 506.68 101.305 508.104V513H99.0649V504.136H101.305V505.24C101.881 504.488 102.841 504.008 103.977 504.008C106.041 504.008 107.513 505.352 107.513 507.8V513H105.273ZM109.067 508.536C109.067 505.768 110.859 503.992 113.131 503.992C114.299 503.992 115.419 504.536 116.027 505.368V501.16H118.299V513H116.027V511.688C115.499 512.504 114.507 513.144 113.115 513.144C110.859 513.144 109.067 511.304 109.067 508.536ZM116.043 508.568C116.043 506.888 114.923 505.96 113.691 505.96C112.491 505.96 111.355 506.856 111.355 508.536C111.355 510.216 112.491 511.176 113.691 511.176C114.923 511.176 116.043 510.248 116.043 508.568ZM131.611 501.816H133.851V513H131.611L126.539 505.336V513H124.299V501.816H126.539L131.611 509.496V501.816ZM144.625 508.568C144.625 511.352 142.577 513.144 140.001 513.144C137.441 513.144 135.505 511.352 135.505 508.568C135.505 505.768 137.505 503.992 140.065 503.992C142.625 503.992 144.625 505.768 144.625 508.568ZM137.777 508.568C137.777 510.328 138.801 511.192 140.001 511.192C141.185 511.192 142.321 510.328 142.321 508.568C142.321 506.792 141.217 505.944 140.033 505.944C138.849 505.944 137.777 506.792 137.777 508.568ZM147.884 513L145.276 504.136H147.548L149.116 510.888L150.812 504.136H153.18L154.844 510.872L156.412 504.136H158.556L155.964 513H153.548L151.932 506.808L150.316 513H147.884Z" fill="white"/>
</g>
<path d="M59.0247 86.92C48.9447 86.92 41.8887 94.024 41.8887 104.104C41.8887 114.184 48.9927 121.24 59.0727 121.24C67.9527 121.24 73.5687 115.432 75.2967 109.624V101.992H57.4407V108.04H67.8567C66.6087 111.832 63.7767 113.992 59.6967 113.992C53.7927 113.992 50.2407 110.344 50.2407 104.104C50.2407 98.248 53.7447 94.504 59.0247 94.504C62.0967 94.504 64.4007 95.704 65.6487 97.96H74.7207C72.9447 91.048 67.0887 86.92 59.0247 86.92ZM91.6512 100.408C94.3872 100.408 96.6912 102.088 96.6912 105.016H86.4192C86.8992 102.04 88.9632 100.408 91.6512 100.408ZM104.467 112.12H95.7312C95.0592 113.56 93.7632 114.712 91.4592 114.712C88.8192 114.712 86.6592 113.08 86.3712 109.576H104.947C105.043 108.76 105.091 107.944 105.091 107.176C105.091 99.016 99.5712 93.832 91.7472 93.832C83.7792 93.832 78.2112 99.112 78.2112 107.608C78.2112 116.104 83.8752 121.384 91.7472 121.384C98.4192 121.384 103.171 117.352 104.467 112.12ZM110.717 111.688C110.717 118.648 114.605 121 120.173 121H124.349V114.04H121.421C119.597 114.04 118.925 113.368 118.925 111.784V101.032H124.301V94.216H118.925V87.688H110.717V94.216H107.453V101.032H110.717V111.688ZM139.093 121H147.301V87.304H139.093V121ZM171.729 121H179.889V105.352C179.889 98.152 175.761 93.928 169.569 93.928C165.969 93.928 163.089 95.512 161.457 97.768V94.216H153.249V121H161.457V106.456C161.457 102.808 163.473 100.792 166.593 100.792C169.713 100.792 171.729 102.808 171.729 106.456V121ZM193.941 93.88H202.869V121H211.077V93.88H220.005V87.304H193.941V93.88ZM250.332 107.608C250.332 99.112 244.284 93.832 236.412 93.832C228.588 93.832 222.492 99.112 222.492 107.608C222.492 116.104 228.444 121.384 236.316 121.384C244.188 121.384 250.332 116.104 250.332 107.608ZM230.844 107.608C230.844 103.048 233.436 100.936 236.412 100.936C239.292 100.936 241.98 103.048 241.98 107.608C241.98 112.12 239.244 114.28 236.316 114.28C233.34 114.28 230.844 112.12 230.844 107.608ZM281.135 94.216H272.927V108.76C272.927 112.408 270.911 114.424 267.743 114.424C264.671 114.424 262.607 112.408 262.607 108.76V94.216H254.447V109.864C254.447 117.016 258.623 121.288 264.815 121.288C268.415 121.288 271.295 119.656 272.927 117.352V121H281.135V94.216ZM285.399 107.608C285.399 116.104 290.967 121.384 298.839 121.384C305.559 121.384 310.311 117.496 311.703 111.304H302.967C302.247 113.272 300.951 114.376 298.695 114.376C295.767 114.376 293.751 112.072 293.751 107.608C293.751 103.144 295.767 100.84 298.695 100.84C300.951 100.84 302.295 102.04 302.967 103.912H311.703C310.311 97.528 305.559 93.832 298.839 93.832C290.967 93.832 285.399 99.16 285.399 107.608ZM316.093 121H324.301V106.456C324.301 102.808 326.317 100.792 329.437 100.792C332.557 100.792 334.573 102.808 334.573 106.456V121H342.733V105.352C342.733 98.152 338.653 93.928 332.557 93.928C328.861 93.928 325.933 95.512 324.301 97.816V85.48H316.093V121ZM365.377 121H375.313L380.881 98.824L386.257 121H396.193L404.977 87.304H396.145L391.249 111.832L385.489 87.304H376.465L370.465 111.832L365.617 87.304H356.833L365.377 121ZM409.093 121H417.301V94.216H409.093V121ZM413.221 91.432C416.101 91.432 418.069 89.464 418.069 87.016C418.069 84.52 416.101 82.552 413.221 82.552C410.293 82.552 408.325 84.52 408.325 87.016C408.325 89.464 410.293 91.432 413.221 91.432ZM424.545 111.688C424.545 118.648 428.433 121 434.001 121H438.177V114.04H435.249C433.425 114.04 432.753 113.368 432.753 111.784V101.032H438.129V94.216H432.753V87.688H424.545V94.216H421.281V101.032H424.545V111.688ZM442.749 121H450.957V106.456C450.957 102.808 452.973 100.792 456.093 100.792C459.213 100.792 461.229 102.808 461.229 106.456V121H469.389V105.352C469.389 98.152 465.309 93.928 459.213 93.928C455.517 93.928 452.589 95.512 450.957 97.816V85.48H442.749V121ZM485.121 107.416C485.121 116.728 491.217 121.336 499.041 121.336C506.817 121.336 513.345 116.728 513.345 107.416V87.304H505.137V107.464C505.137 111.448 503.073 113.752 499.185 113.752C495.297 113.752 493.329 111.448 493.329 107.464V87.304H485.121V107.416ZM540.853 113.224C540.709 103.24 526.213 106.264 526.213 101.992C526.213 100.696 527.269 99.928 529.189 99.928C531.493 99.928 532.885 101.128 533.125 102.952H540.709C540.181 97.672 536.341 93.832 529.429 93.832C522.421 93.832 518.533 97.576 518.533 102.136C518.533 111.976 533.125 108.856 533.125 113.176C533.125 114.376 532.021 115.336 529.909 115.336C527.653 115.336 525.973 114.088 525.781 112.216H517.669C518.053 117.4 522.853 121.384 530.005 121.384C536.725 121.384 540.853 117.88 540.853 113.224ZM548.754 109.096H555.714L556.674 86.104H547.794L548.754 109.096ZM557.202 116.968C557.202 114.424 555.234 112.456 552.354 112.456C549.426 112.456 547.458 114.424 547.458 116.968C547.458 119.416 549.426 121.384 552.354 121.384C555.234 121.384 557.202 119.416 557.202 116.968Z" fill="#252B33"/>
<path d="M40.555 54.765C40.555 57.9 42.94 60.09 45.88 60.09C48.055 60.09 49.93 59.01 50.725 56.97H48.67C48.115 58.08 47.125 58.605 45.88 58.605C43.81 58.605 42.31 57.12 42.31 54.765C42.31 52.41 43.81 50.94 45.88 50.94C47.125 50.94 48.115 51.465 48.67 52.575H50.725C49.93 50.535 48.055 49.44 45.88 49.44C42.94 49.44 40.555 51.645 40.555 54.765ZM65.8066 54.765C65.8066 51.645 63.4516 49.44 60.4816 49.44C57.5416 49.44 55.1566 51.645 55.1566 54.765C55.1566 57.9 57.5416 60.105 60.4816 60.105C63.4516 60.105 65.8066 57.9 65.8066 54.765ZM56.9116 54.765C56.9116 52.41 58.4116 50.94 60.4816 50.94C62.5516 50.94 64.0516 52.41 64.0516 54.765C64.0516 57.12 62.5516 58.62 60.4816 58.62C58.4116 58.62 56.9116 57.12 56.9116 54.765ZM77.3443 49.56V57.33L72.1993 49.56H70.4893V60H72.1993V52.215L77.3443 60H79.0543V49.56H77.3443ZM83.7598 50.97H86.5498V60H88.2598V50.97H91.0348V49.575H83.7598V50.97ZM102.802 60H104.602L100.867 49.56H98.8866L95.1516 60H96.9366L97.6866 57.87H102.052L102.802 60ZM101.572 56.475H98.1666L99.8766 51.63L101.572 56.475ZM108.656 54.765C108.656 57.9 111.041 60.09 113.981 60.09C116.156 60.09 118.031 59.01 118.826 56.97H116.771C116.216 58.08 115.226 58.605 113.981 58.605C111.911 58.605 110.411 57.12 110.411 54.765C110.411 52.41 111.911 50.94 113.981 50.94C115.226 50.94 116.216 51.465 116.771 52.575H118.826C118.031 50.535 116.156 49.44 113.981 49.44C111.041 49.44 108.656 51.645 108.656 54.765ZM123.287 50.97H126.077V60H127.787V50.97H130.562V49.575H123.287V50.97ZM142.175 56.19C142.175 58.845 144.035 60.105 146.225 60.105C148.4 60.105 150.32 58.845 150.32 56.19V49.575H148.61V56.22C148.61 57.84 147.695 58.605 146.24 58.605C144.8 58.605 143.885 57.84 143.885 56.22V49.575H142.175V56.19ZM162.582 57.045C162.582 53.235 157.062 54.705 157.062 52.35C157.062 51.345 157.827 50.865 158.817 50.895C159.897 50.925 160.512 51.57 160.572 52.275H162.462C162.312 50.49 160.902 49.44 158.907 49.44C156.777 49.44 155.322 50.58 155.322 52.41C155.322 56.25 160.857 54.615 160.857 57.135C160.857 58.02 160.182 58.665 158.982 58.665C157.797 58.665 157.197 57.975 157.122 57.12H155.292C155.292 58.965 156.897 60.105 158.982 60.105C161.307 60.105 162.582 58.605 162.582 57.045Z" fill="#71AA38"/>
<path d="M40 66H170" stroke="#71AA38"/>
</g>
<defs>
<filter id="filter0_ddddd_1_427" x="12" y="478" width="213" height="183" filterUnits="userSpaceOnUse" color-interpolation-filters="sRGB">
<feFlood flood-opacity="0" result="BackgroundImageFix"/>
<feColorMatrix in="SourceAlpha" type="matrix" values="0 0 0 0 0 0 0 0 0 0 0 0 0 0 0 0 0 0 127 0" result="hardAlpha"/>
<feOffset dy="4"/>
<feGaussianBlur stdDeviation="4.5"/>
<feColorMatrix type="matrix" values="0 0 0 0 0.498039 0 0 0 0 0.6 0 0 0 0 0.192157 0 0 0 0.27 0"/>
<feBlend mode="normal" in2="BackgroundImageFix" result="effect1_dropShadow_1_427"/>
<feColorMatrix in="SourceAlpha" type="matrix" values="0 0 0 0 0 0 0 0 0 0 0 0 0 0 0 0 0 0 127 0" result="hardAlpha"/>
<feOffset dy="16"/>
<feGaussianBlur stdDeviation="8"/>
<feColorMatrix type="matrix" values="0 0 0 0 0.498039 0 0 0 0 0.6 0 0 0 0 0.192157 0 0 0 0.23 0"/>
<feBlend mode="normal" in2="effect1_dropShadow_1_427" result="effect2_dropShadow_1_427"/>
<feColorMatrix in="SourceAlpha" type="matrix" values="0 0 0 0 0 0 0 0 0 0 0 0 0 0 0 0 0 0 127 0" result="hardAlpha"/>
<feOffset dy="37"/>
<feGaussianBlur stdDeviation="11"/>
<feColorMatrix type="matrix" values="0 0 0 0 0.498039 0 0 0 0 0.6 0 0 0 0 0.192157 0 0 0 0.14 0"/>
<feBlend mode="normal" in2="effect2_dropShadow_1_427" result="effect3_dropShadow_1_427"/>
<feColorMatrix in="SourceAlpha" type="matrix" values="0 0 0 0 0 0 0 0 0 0 0 0 0 0 0 0 0 0 127 0" result="hardAlpha"/>
<feOffset dy="65"/>
<feGaussianBlur stdDeviation="13"/>
<feColorMatrix type="matrix" values="0 0 0 0 0.498039 0 0 0 0 0.6 0 0 0 0 0.192157 0 0 0 0.04 0"/>
<feBlend mode="normal" in2="effect3_dropShadow_1_427" result="effect4_dropShadow_1_427"/>
<feColorMatrix in="SourceAlpha" type="matrix" values="0 0 0 0 0 0 0 0 0 0 0 0 0 0 0 0 0 0 127 0" result="hardAlpha"/>
<feOffset dy="102"/>
<feGaussianBlur stdDeviation="14"/>
<feColorMatrix type="matrix" values="0 0 0 0 0.498039 0 0 0 0 0.6 0 0 0 0 0.192157 0 0 0 0.01 0"/>
<feBlend mode="normal" in2="effect4_dropShadow_1_427" result="effect5_dropShadow_1_427"/>
<feBlend mode="normal" in="SourceGraphic" in2="effect5_dropShadow_1_427" result="shape"/>
</filter>
<clipPath id="clip0_1_427">
<rect width="740" height="571" rx="40" fill="white"/>
</clipPath>
</defs>
</svg>
