<svg width="1440" height="964" viewBox="0 0 1440 964" fill="none" xmlns="http://www.w3.org/2000/svg">
<path opacity="0.2" d="M-12 0.00385063C-12 0.00385063 191.263 83.426 324.5 86.5795C482.522 90.3197 567.174 -0.681377 725.25 0.00385063C878.108 0.666461 959.673 89.4011 1112.5 86.5795C1246.52 84.1051 1451 0.00385076 1451 0.00385076V963.976C1451 963.976 1237.55 879.358 1097 878.292C949.625 877.175 872.619 962.357 725.25 963.976C566.714 965.717 482.976 874.045 324.5 878.292C190.72 881.878 -12 963.976 -12 963.976V0.00385063Z" fill="#71AA38"/>
<path opacity="0.2" d="M-12 18.0048C-12 18.0048 191.263 83.5521 324.5 86.7045C482.522 90.4433 567.174 17.3198 725.25 18.0048C878.108 18.6671 959.673 89.525 1112.5 86.7045C1246.52 84.2309 1451 18.0048 1451 18.0048V945.97C1451 945.97 1237.55 879.227 1097 878.162C949.625 877.045 872.619 944.352 725.25 945.97C566.714 947.71 482.976 873.917 324.5 878.162C190.72 881.746 -12 945.97 -12 945.97V18.0048Z" fill="#71AA38"/>
<path d="M-12 36.0063C-12 36.0063 191.263 83.6901 324.5 86.8412C482.522 90.5785 567.174 35.3216 725.25 36.0063C878.108 36.6684 959.673 89.6606 1112.5 86.8412C1246.52 84.3687 1451 36.0063 1451 36.0063V927.96C1451 927.96 1237.55 879.082 1097 878.017C949.625 876.901 872.619 926.343 725.25 927.96C566.714 929.7 482.976 873.773 324.5 878.017C190.72 881.6 -12 927.96 -12 927.96V36.0063Z" fill="white"/>
<path d="M537.968 197H546.656L534.464 163.304H524.96L512.768 197H521.36L523.376 191.048H535.952L537.968 197ZM533.84 184.712H525.536L529.664 172.376L533.84 184.712ZM558.575 174.008V170.216H550.367V209.768H558.575V193.256C560.063 195.512 562.895 197.384 566.831 197.384C573.407 197.384 578.639 192.008 578.639 183.56C578.639 175.112 573.407 169.832 566.831 169.832C562.895 169.832 560.063 171.656 558.575 174.008ZM570.287 183.56C570.287 187.832 567.503 190.232 564.383 190.232C561.311 190.232 558.527 187.88 558.527 183.608C558.527 179.336 561.311 176.984 564.383 176.984C567.503 176.984 570.287 179.288 570.287 183.56ZM591.153 174.008V170.216H582.945V209.768H591.153V193.256C592.641 195.512 595.473 197.384 599.409 197.384C605.985 197.384 611.217 192.008 611.217 183.56C611.217 175.112 605.985 169.832 599.409 169.832C595.473 169.832 592.641 171.656 591.153 174.008ZM602.865 183.56C602.865 187.832 600.081 190.232 596.961 190.232C593.889 190.232 591.105 187.88 591.105 183.608C591.105 179.336 593.889 176.984 596.961 176.984C600.081 176.984 602.865 179.288 602.865 183.56ZM650.175 186.968C650.175 175.688 633.519 178.328 633.519 172.472C633.519 170.36 635.007 169.352 636.975 169.4C639.183 169.448 640.719 170.744 640.863 172.904H649.743C649.407 166.472 644.463 162.824 637.119 162.824C630.063 162.824 624.831 166.376 624.831 172.76C624.735 184.712 641.583 181.352 641.583 187.592C641.583 189.56 640.047 190.76 637.647 190.76C635.343 190.76 633.711 189.512 633.471 186.92H624.735C624.975 193.736 630.639 197.336 637.887 197.336C645.759 197.336 650.175 192.632 650.175 186.968ZM653.594 183.608C653.594 192.104 659.162 197.384 667.034 197.384C673.754 197.384 678.506 193.496 679.898 187.304H671.162C670.442 189.272 669.146 190.376 666.89 190.376C663.962 190.376 661.946 188.072 661.946 183.608C661.946 179.144 663.962 176.84 666.89 176.84C669.146 176.84 670.49 178.04 671.162 179.912H679.898C678.506 173.528 673.754 169.832 667.034 169.832C659.162 169.832 653.594 175.16 653.594 183.608ZM692.497 184.568C692.497 179.96 694.753 178.616 698.641 178.616H700.897V169.928C697.297 169.928 694.369 171.848 692.497 174.68V170.216H684.289V197H692.497V184.568ZM716.628 176.408C719.364 176.408 721.668 178.088 721.668 181.016H711.396C711.876 178.04 713.94 176.408 716.628 176.408ZM729.444 188.12H720.708C720.036 189.56 718.74 190.712 716.436 190.712C713.796 190.712 711.636 189.08 711.348 185.576H729.924C730.02 184.76 730.068 183.944 730.068 183.176C730.068 175.016 724.548 169.832 716.724 169.832C708.756 169.832 703.188 175.112 703.188 183.608C703.188 192.104 708.852 197.384 716.724 197.384C723.396 197.384 728.148 193.352 729.444 188.12ZM746.206 176.408C748.942 176.408 751.246 178.088 751.246 181.016H740.974C741.454 178.04 743.518 176.408 746.206 176.408ZM759.022 188.12H750.286C749.614 189.56 748.318 190.712 746.014 190.712C743.374 190.712 741.214 189.08 740.926 185.576H759.502C759.598 184.76 759.646 183.944 759.646 183.176C759.646 175.016 754.126 169.832 746.302 169.832C738.334 169.832 732.766 175.112 732.766 183.608C732.766 192.104 738.43 197.384 746.302 197.384C752.974 197.384 757.726 193.352 759.022 188.12ZM782.456 197H790.616V181.352C790.616 174.152 786.488 169.928 780.296 169.928C776.696 169.928 773.816 171.512 772.184 173.768V170.216H763.976V197H772.184V182.456C772.184 178.808 774.2 176.792 777.32 176.792C780.44 176.792 782.456 178.808 782.456 182.456V197ZM818.064 189.224C817.92 179.24 803.424 182.264 803.424 177.992C803.424 176.696 804.48 175.928 806.4 175.928C808.704 175.928 810.096 177.128 810.336 178.952H817.92C817.392 173.672 813.552 169.832 806.64 169.832C799.632 169.832 795.744 173.576 795.744 178.136C795.744 187.976 810.336 184.856 810.336 189.176C810.336 190.376 809.232 191.336 807.12 191.336C804.864 191.336 803.184 190.088 802.992 188.216H794.88C795.264 193.4 800.064 197.384 807.216 197.384C813.936 197.384 818.064 193.88 818.064 189.224ZM823.085 197H831.293V182.456C831.293 178.808 833.309 176.792 836.429 176.792C839.549 176.792 841.565 178.808 841.565 182.456V197H849.725V181.352C849.725 174.152 845.645 169.928 839.549 169.928C835.853 169.928 832.925 171.512 831.293 173.816V161.48H823.085V197ZM881.637 183.608C881.637 175.112 875.589 169.832 867.717 169.832C859.893 169.832 853.797 175.112 853.797 183.608C853.797 192.104 859.749 197.384 867.621 197.384C875.493 197.384 881.637 192.104 881.637 183.608ZM862.149 183.608C862.149 179.048 864.741 176.936 867.717 176.936C870.597 176.936 873.285 179.048 873.285 183.608C873.285 188.12 870.549 190.28 867.621 190.28C864.645 190.28 862.149 188.12 862.149 183.608ZM887.288 187.688C887.288 194.648 891.176 197 896.744 197H900.92V190.04H897.992C896.168 190.04 895.496 189.368 895.496 187.784V177.032H900.872V170.216H895.496V163.688H887.288V170.216H884.024V177.032H887.288V187.688ZM927.236 189.224C927.092 179.24 912.596 182.264 912.596 177.992C912.596 176.696 913.652 175.928 915.572 175.928C917.876 175.928 919.268 177.128 919.508 178.952H927.092C926.564 173.672 922.724 169.832 915.812 169.832C908.804 169.832 904.916 173.576 904.916 178.136C904.916 187.976 919.508 184.856 919.508 189.176C919.508 190.376 918.404 191.336 916.292 191.336C914.036 191.336 912.356 190.088 912.164 188.216H904.052C904.436 193.4 909.236 197.384 916.388 197.384C923.108 197.384 927.236 193.88 927.236 189.224Z" fill="#252B33"/>
<path d="M661.16 133.045C661.16 129.235 655.64 130.705 655.64 128.35C655.64 127.345 656.405 126.865 657.395 126.895C658.475 126.925 659.09 127.57 659.15 128.275H661.04C660.89 126.49 659.48 125.44 657.485 125.44C655.355 125.44 653.9 126.58 653.9 128.41C653.9 132.25 659.435 130.615 659.435 133.135C659.435 134.02 658.76 134.665 657.56 134.665C656.375 134.665 655.775 133.975 655.7 133.12H653.87C653.87 134.965 655.475 136.105 657.56 136.105C659.885 136.105 661.16 134.605 661.16 133.045ZM665.608 130.765C665.608 133.9 667.993 136.09 670.933 136.09C673.108 136.09 674.983 135.01 675.778 132.97H673.723C673.168 134.08 672.178 134.605 670.933 134.605C668.863 134.605 667.363 133.12 667.363 130.765C667.363 128.41 668.863 126.94 670.933 126.94C672.178 126.94 673.168 127.465 673.723 128.575H675.778C674.983 126.535 673.108 125.44 670.933 125.44C667.993 125.44 665.608 127.645 665.608 130.765ZM686.314 128.695C686.314 129.73 685.714 130.465 684.379 130.465H682.489V126.97H684.379C685.714 126.97 686.314 127.645 686.314 128.695ZM680.779 125.575V136H682.489V131.83H683.794L686.194 136H688.234L685.654 131.68C687.409 131.245 688.069 129.925 688.069 128.695C688.069 127 686.854 125.575 684.379 125.575H680.779ZM699.017 125.56H693.257V136H699.017V134.605H694.967V131.41H698.567V130.015H694.967V126.955H699.017V125.56ZM709.883 125.56H704.123V136H709.883V134.605H705.833V131.41H709.433V130.015H705.833V126.955H709.883V125.56ZM721.844 125.56V133.33L716.699 125.56H714.989V136H716.699V128.215L721.844 136H723.554V125.56H721.844ZM735.835 133.045C735.835 129.235 730.315 130.705 730.315 128.35C730.315 127.345 731.08 126.865 732.07 126.895C733.15 126.925 733.765 127.57 733.825 128.275H735.715C735.565 126.49 734.155 125.44 732.16 125.44C730.03 125.44 728.575 126.58 728.575 128.41C728.575 132.25 734.11 130.615 734.11 133.135C734.11 134.02 733.435 134.665 732.235 134.665C731.05 134.665 730.45 133.975 730.375 133.12H728.545C728.545 134.965 730.15 136.105 732.235 136.105C734.56 136.105 735.835 134.605 735.835 133.045ZM747.468 136H749.178V125.575H747.468V130.045H742.563V125.575H740.853V136H742.563V131.44H747.468V136ZM764.509 130.765C764.509 127.645 762.154 125.44 759.184 125.44C756.244 125.44 753.859 127.645 753.859 130.765C753.859 133.9 756.244 136.105 759.184 136.105C762.154 136.105 764.509 133.9 764.509 130.765ZM755.614 130.765C755.614 128.41 757.114 126.94 759.184 126.94C761.254 126.94 762.754 128.41 762.754 130.765C762.754 133.12 761.254 134.62 759.184 134.62C757.114 134.62 755.614 133.12 755.614 130.765ZM768.651 126.97H771.441V136H773.151V126.97H775.926V125.575H768.651V126.97ZM787.693 133.045C787.693 129.235 782.173 130.705 782.173 128.35C782.173 127.345 782.938 126.865 783.928 126.895C785.008 126.925 785.623 127.57 785.683 128.275H787.573C787.423 126.49 786.013 125.44 784.018 125.44C781.888 125.44 780.433 126.58 780.433 128.41C780.433 132.25 785.968 130.615 785.968 133.135C785.968 134.02 785.293 134.665 784.093 134.665C782.908 134.665 782.308 133.975 782.233 133.12H780.403C780.403 134.965 782.008 136.105 784.093 136.105C786.418 136.105 787.693 134.605 787.693 133.045Z" fill="#71AA38"/>
<path d="M656 142H786" stroke="#71AA38"/>
<circle cx="646" cy="888" r="5" fill="#71AA38"/>
<circle cx="671" cy="888" r="5" fill="#CCCCCC"/>
<circle cx="696" cy="888" r="5" fill="#CCCCCC"/>
<circle cx="721" cy="888" r="5" fill="#CCCCCC"/>
<circle cx="746" cy="888" r="5" fill="#CCCCCC"/>
<circle cx="771" cy="888" r="5" fill="#CCCCCC"/>
<circle cx="796" cy="888" r="5" fill="#CCCCCC"/>
</svg>
