<svg width="1196" height="312" viewBox="0 0 1196 312" fill="none" xmlns="http://www.w3.org/2000/svg">
<g filter="url(#filter0_d_1_155)">
<rect x="30" y="178" width="260" height="100" rx="10" fill="white"/>
</g>
<circle cx="235" cy="178" r="35" fill="#71AA38"/>
<path d="M220 181.409V188C220 190.761 222.239 193 225 193H245C247.761 193 250 190.761 250 188V181.409" stroke="white" stroke-width="3.5" stroke-linecap="round"/>
<path d="M228.333 177.571L235 183.682L241.667 177.571" stroke="white" stroke-width="3.5" stroke-linecap="round" stroke-linejoin="round"/>
<path d="M235 182.773V163" stroke="white" stroke-width="3.5" stroke-linecap="round" stroke-linejoin="round"/>
<path d="M51.054 228H56.526V200.298H47.368V205.2H51.054V228ZM61.7816 213.788C61.7816 221.882 64.2136 227.924 72.0416 227.924C79.8696 227.924 82.3016 221.882 82.3016 213.788C82.3016 205.77 79.8696 199.766 72.0416 199.766C64.2136 199.766 61.7816 205.77 61.7816 213.788ZM77.0576 213.788C77.0576 218.728 76.5256 222.984 72.0416 222.984C67.5576 222.984 67.0256 218.728 67.0256 213.788C67.0256 209.038 67.5576 204.706 72.0416 204.706C76.5256 204.706 77.0576 209.038 77.0576 213.788ZM86.348 213.788C86.348 221.882 88.78 227.924 96.608 227.924C104.436 227.924 106.868 221.882 106.868 213.788C106.868 205.77 104.436 199.766 96.608 199.766C88.78 199.766 86.348 205.77 86.348 213.788ZM101.624 213.788C101.624 218.728 101.092 222.984 96.608 222.984C92.124 222.984 91.592 218.728 91.592 213.788C91.592 209.038 92.124 204.706 96.608 204.706C101.092 204.706 101.624 209.038 101.624 213.788ZM110.914 213.788C110.914 221.882 113.346 227.924 121.174 227.924C129.002 227.924 131.434 221.882 131.434 213.788C131.434 205.77 129.002 199.766 121.174 199.766C113.346 199.766 110.914 205.77 110.914 213.788ZM126.19 213.788C126.19 218.728 125.658 222.984 121.174 222.984C116.69 222.984 116.158 218.728 116.158 213.788C116.158 209.038 116.69 204.706 121.174 204.706C125.658 204.706 126.19 209.038 126.19 213.788Z" fill="#252B33"/>
<path d="M54.72 254H56.256L52.24 242.912H50.56L46.528 254H48.064L48.96 251.52H53.824L54.72 254ZM53.408 250.336H49.376L51.392 244.704L53.408 250.336ZM59.4693 246.848V245.232H58.0133V258.16H59.4693V252.384C60.0133 253.28 61.1493 254.144 62.7493 254.144C65.1013 254.144 66.9093 252.304 66.9093 249.584C66.9093 246.848 65.1013 245.088 62.7493 245.088C61.1493 245.088 59.9973 245.92 59.4693 246.848ZM65.4213 249.584C65.4213 251.648 64.0613 252.864 62.4453 252.864C60.8613 252.864 59.4693 251.664 59.4693 249.6C59.4693 247.568 60.8613 246.352 62.4453 246.352C64.0613 246.352 65.4213 247.52 65.4213 249.584ZM70.2818 246.848V245.232H68.8258V258.16H70.2818V252.384C70.8258 253.28 71.9618 254.144 73.5618 254.144C75.9138 254.144 77.7218 252.304 77.7218 249.584C77.7218 246.848 75.9138 245.088 73.5618 245.088C71.9618 245.088 70.8098 245.92 70.2818 246.848ZM76.2338 249.584C76.2338 251.648 74.8738 252.864 73.2578 252.864C71.6738 252.864 70.2818 251.664 70.2818 249.6C70.2818 247.568 71.6738 246.352 73.2578 246.352C74.8738 246.352 76.2338 247.52 76.2338 249.584ZM87.3759 242.848H83.9039V254H87.3759C91.0399 254 93.2959 251.904 93.2959 248.448C93.2959 244.992 91.0399 242.848 87.3759 242.848ZM85.3599 252.8V244.032H87.3759C90.2879 244.032 91.8079 245.728 91.8079 248.448C91.8079 251.168 90.2879 252.8 87.3759 252.8H85.3599ZM103.536 249.6C103.536 246.832 101.6 245.088 99.1044 245.088C96.6244 245.088 94.6724 246.832 94.6724 249.6C94.6724 252.384 96.5604 254.144 99.0404 254.144C101.536 254.144 103.536 252.384 103.536 249.6ZM96.1604 249.6C96.1604 247.392 97.5524 246.352 99.0884 246.352C100.592 246.352 102.048 247.392 102.048 249.6C102.048 251.824 100.56 252.864 99.0404 252.864C97.5204 252.864 96.1604 251.824 96.1604 249.6ZM107.163 254H108.667L110.779 247.04L112.891 254H114.395L117.131 245.232H115.691L113.707 252.608L111.579 245.232H110.091L107.915 252.592L105.899 245.232H104.411L107.163 254ZM124.992 254H126.432V248.832C126.432 246.32 124.88 245.072 122.848 245.072C121.664 245.072 120.608 245.568 120.032 246.48V245.232H118.576V254H120.032V249.152C120.032 247.264 121.056 246.336 122.544 246.336C124.016 246.336 124.992 247.248 124.992 249.04V254ZM128.81 254H130.266V242.16H128.81V254ZM141.068 249.6C141.068 246.832 139.132 245.088 136.636 245.088C134.156 245.088 132.204 246.832 132.204 249.6C132.204 252.384 134.092 254.144 136.572 254.144C139.068 254.144 141.068 252.384 141.068 249.6ZM133.692 249.6C133.692 247.392 135.084 246.352 136.62 246.352C138.124 246.352 139.58 247.392 139.58 249.6C139.58 251.824 138.092 252.864 136.572 252.864C135.052 252.864 133.692 251.824 133.692 249.6ZM142.438 249.584C142.438 252.304 144.246 254.144 146.582 254.144C148.198 254.144 149.334 253.312 149.862 252.368V254H151.334V245.232H149.862V246.832C149.35 245.92 148.23 245.088 146.598 245.088C144.246 245.088 142.438 246.848 142.438 249.584ZM149.862 249.6C149.862 251.664 148.486 252.864 146.886 252.864C145.286 252.864 143.926 251.648 143.926 249.584C143.926 247.52 145.286 246.352 146.886 246.352C148.486 246.352 149.862 247.568 149.862 249.6ZM153.251 249.584C153.251 252.304 155.059 254.144 157.411 254.144C159.011 254.144 160.147 253.328 160.675 252.352V254H162.147V242.16H160.675V246.8C160.067 245.792 158.803 245.088 157.427 245.088C155.059 245.088 153.251 246.848 153.251 249.584ZM160.675 249.6C160.675 251.664 159.299 252.864 157.699 252.864C156.099 252.864 154.739 251.648 154.739 249.584C154.739 247.52 156.099 246.352 157.699 246.352C159.299 246.352 160.675 247.568 160.675 249.6ZM170.911 251.616C170.847 248.48 165.759 249.616 165.759 247.536C165.759 246.832 166.399 246.32 167.471 246.32C168.639 246.32 169.311 246.96 169.375 247.84H170.831C170.735 246.128 169.455 245.088 167.519 245.088C165.567 245.088 164.303 246.192 164.303 247.536C164.303 250.8 169.487 249.664 169.487 251.616C169.487 252.336 168.847 252.912 167.695 252.912C166.463 252.912 165.711 252.272 165.631 251.424H164.127C164.223 253.024 165.663 254.144 167.711 254.144C169.647 254.144 170.911 253.056 170.911 251.616Z" fill="#252B33"/>
<g filter="url(#filter1_d_1_155)">
<rect x="322" y="178" width="260" height="100" rx="10" fill="white"/>
</g>
<circle cx="527" cy="178" r="35" fill="#71AA38"/>
<circle cx="527" cy="178" r="17.25" stroke="white" stroke-width="3.5"/>
<circle cx="521.26" cy="171.469" r="1.38542" fill="white"/>
<circle cx="533.135" cy="171.469" r="1.38542" fill="white"/>
<path d="M515.125 180.375C515.125 180.375 517.5 188.688 527 188.688C536.5 188.688 539.271 180.375 539.271 180.375" stroke="white" stroke-width="3.5" stroke-linecap="round" stroke-linejoin="round"/>
<path d="M339.95 227.62H358.722V223.212H347.512C351.92 219.488 358.114 214.472 358.114 208.05C358.114 203.224 355.112 199.69 349.146 199.69C344.168 199.69 340.102 202.616 339.912 208.962H345.08C345.118 206.036 346.524 204.212 349.07 204.212C351.692 204.212 352.794 205.884 352.794 208.354C352.794 213.446 346.22 218.348 339.95 223.668V227.62ZM362.075 213.788C362.075 221.882 364.507 227.924 372.335 227.924C380.163 227.924 382.595 221.882 382.595 213.788C382.595 205.77 380.163 199.766 372.335 199.766C364.507 199.766 362.075 205.77 362.075 213.788ZM377.351 213.788C377.351 218.728 376.819 222.984 372.335 222.984C367.851 222.984 367.319 218.728 367.319 213.788C367.319 209.038 367.851 204.706 372.335 204.706C376.819 204.706 377.351 209.038 377.351 213.788ZM386.641 213.788C386.641 221.882 389.073 227.924 396.901 227.924C404.729 227.924 407.161 221.882 407.161 213.788C407.161 205.77 404.729 199.766 396.901 199.766C389.073 199.766 386.641 205.77 386.641 213.788ZM401.917 213.788C401.917 218.728 401.385 222.984 396.901 222.984C392.417 222.984 391.885 218.728 391.885 213.788C391.885 209.038 392.417 204.706 396.901 204.706C401.385 204.706 401.917 209.038 401.917 213.788ZM411.207 213.788C411.207 221.882 413.639 227.924 421.467 227.924C429.295 227.924 431.727 221.882 431.727 213.788C431.727 205.77 429.295 199.766 421.467 199.766C413.639 199.766 411.207 205.77 411.207 213.788ZM426.483 213.788C426.483 218.728 425.951 222.984 421.467 222.984C416.983 222.984 416.451 218.728 416.451 213.788C416.451 209.038 416.983 204.706 421.467 204.706C425.951 204.706 426.483 209.038 426.483 213.788Z" fill="#252B33"/>
<path d="M346.688 254H348.144V242.848H346.688V247.744H341.008V242.848H339.552V254H341.008V248.944H346.688V254ZM350.071 249.584C350.071 252.304 351.879 254.144 354.215 254.144C355.831 254.144 356.967 253.312 357.495 252.368V254H358.967V245.232H357.495V246.832C356.983 245.92 355.863 245.088 354.231 245.088C351.879 245.088 350.071 246.848 350.071 249.584ZM357.495 249.6C357.495 251.664 356.119 252.864 354.519 252.864C352.919 252.864 351.559 251.648 351.559 249.584C351.559 247.52 352.919 246.352 354.519 246.352C356.119 246.352 357.495 247.568 357.495 249.6ZM362.883 246.848V245.232H361.427V258.16H362.883V252.384C363.427 253.28 364.563 254.144 366.163 254.144C368.515 254.144 370.323 252.304 370.323 249.584C370.323 246.848 368.515 245.088 366.163 245.088C364.563 245.088 363.411 245.92 362.883 246.848ZM368.835 249.584C368.835 251.648 367.475 252.864 365.859 252.864C364.275 252.864 362.883 251.664 362.883 249.6C362.883 247.568 364.275 246.352 365.859 246.352C367.475 246.352 368.835 247.52 368.835 249.584ZM373.696 246.848V245.232H372.24V258.16H373.696V252.384C374.24 253.28 375.376 254.144 376.976 254.144C379.328 254.144 381.136 252.304 381.136 249.584C381.136 246.848 379.328 245.088 376.976 245.088C375.376 245.088 374.224 245.92 373.696 246.848ZM379.648 249.584C379.648 251.648 378.288 252.864 376.672 252.864C375.088 252.864 373.696 251.664 373.696 249.6C373.696 247.568 375.088 246.352 376.672 246.352C378.288 246.352 379.648 247.52 379.648 249.584ZM386.38 252.336L383.628 245.232H382.012L385.548 253.904L383.82 258.128H385.324L390.604 245.232H389.1L386.38 252.336ZM395.79 248.416C395.79 251.76 398.238 254.096 401.358 254.096C403.774 254.096 405.694 252.896 406.526 250.752H404.782C404.174 252.08 402.99 252.832 401.358 252.832C399.022 252.832 397.278 251.136 397.278 248.416C397.278 245.68 399.022 243.984 401.358 243.984C402.99 243.984 404.174 244.736 404.782 246.08H406.526C405.694 243.92 403.774 242.704 401.358 242.704C398.238 242.704 395.79 245.072 395.79 248.416ZM408.693 254H410.149V242.16H408.693V254ZM412.63 254H414.086V245.232H412.63V254ZM413.382 243.808C413.91 243.808 414.342 243.376 414.342 242.816C414.342 242.256 413.91 241.824 413.382 241.824C412.822 241.824 412.39 242.256 412.39 242.816C412.39 243.376 412.822 243.808 413.382 243.808ZM420.296 246.32C421.8 246.32 423.08 247.264 423.064 248.976H417.528C417.688 247.264 418.872 246.32 420.296 246.32ZM424.392 251.296H422.824C422.504 252.24 421.672 252.912 420.36 252.912C418.872 252.912 417.624 251.936 417.512 250.16H424.52C424.552 249.856 424.568 249.6 424.568 249.28C424.568 246.88 422.904 245.088 420.36 245.088C417.8 245.088 416.024 246.832 416.024 249.6C416.024 252.384 417.864 254.144 420.36 254.144C422.536 254.144 423.944 252.896 424.392 251.296ZM432.906 254H434.346V248.832C434.346 246.32 432.794 245.072 430.762 245.072C429.578 245.072 428.522 245.568 427.946 246.48V245.232H426.49V254H427.946V249.152C427.946 247.264 428.97 246.336 430.458 246.336C431.93 246.336 432.906 247.248 432.906 249.04V254ZM437.044 251.6C437.044 253.36 437.924 254 439.476 254H440.788V252.768H439.716C438.82 252.768 438.5 252.464 438.5 251.6V246.432H440.788V245.232H438.5V243.024H437.044V245.232H435.908V246.432H437.044V251.6ZM448.856 251.616C448.792 248.48 443.704 249.616 443.704 247.536C443.704 246.832 444.344 246.32 445.416 246.32C446.584 246.32 447.256 246.96 447.32 247.84H448.776C448.68 246.128 447.4 245.088 445.464 245.088C443.512 245.088 442.248 246.192 442.248 247.536C442.248 250.8 447.432 249.664 447.432 251.616C447.432 252.336 446.792 252.912 445.64 252.912C444.408 252.912 443.656 252.272 443.576 251.424H442.072C442.168 253.024 443.608 254.144 445.656 254.144C447.592 254.144 448.856 253.056 448.856 251.616Z" fill="#252B33"/>
<g filter="url(#filter2_d_1_155)">
<rect x="614" y="178" width="260" height="100" rx="10" fill="white"/>
</g>
<circle cx="819" cy="178" r="35" fill="#71AA38"/>
<circle cx="819" cy="178" r="17.25" stroke="white" stroke-width="3.5"/>
<circle cx="819" cy="174.042" r="4.58333" stroke="white" stroke-width="3.5"/>
<path d="M809.896 193.042C808.892 191.413 808.708 190.741 808.708 188.688C808.708 183.743 812.461 179.526 817.021 178.396M828.896 192.646C829.9 191.017 830.083 190.741 830.083 188.688C830.083 183.959 825.236 179.703 820.979 178.396" stroke="white" stroke-width="3.5"/>
<path d="M645.458 228H650.778V222.604H654.122V217.968H650.778V200.64H644.584L632.158 218.424V222.604H645.458V228ZM638.01 217.968L645.8 206.34V217.968H638.01ZM657.509 213.788C657.509 221.882 659.941 227.924 667.769 227.924C675.597 227.924 678.029 221.882 678.029 213.788C678.029 205.77 675.597 199.766 667.769 199.766C659.941 199.766 657.509 205.77 657.509 213.788ZM672.785 213.788C672.785 218.728 672.253 222.984 667.769 222.984C663.285 222.984 662.753 218.728 662.753 213.788C662.753 209.038 663.285 204.706 667.769 204.706C672.253 204.706 672.785 209.038 672.785 213.788ZM682.076 213.788C682.076 221.882 684.508 227.924 692.336 227.924C700.164 227.924 702.596 221.882 702.596 213.788C702.596 205.77 700.164 199.766 692.336 199.766C684.508 199.766 682.076 205.77 682.076 213.788ZM697.352 213.788C697.352 218.728 696.82 222.984 692.336 222.984C687.852 222.984 687.32 218.728 687.32 213.788C687.32 209.038 687.852 204.706 692.336 204.706C696.82 204.706 697.352 209.038 697.352 213.788Z" fill="#252B33"/>
<path d="M639.126 256H640.662L636.646 244.912H634.966L630.934 256H632.47L633.366 253.52H638.23L639.126 256ZM637.814 252.336H633.782L635.798 246.704L637.814 252.336ZM641.876 250.416C641.876 253.76 644.324 256.096 647.444 256.096C649.86 256.096 651.78 254.896 652.612 252.752H650.868C650.26 254.08 649.076 254.832 647.444 254.832C645.108 254.832 643.364 253.136 643.364 250.416C643.364 247.68 645.108 245.984 647.444 245.984C649.076 245.984 650.26 246.736 650.868 248.08H652.612C651.78 245.92 649.86 244.704 647.444 244.704C644.324 244.704 641.876 247.072 641.876 250.416ZM654.091 246.032H657.147V256H658.603V246.032H661.643V244.848H654.091V246.032ZM663.435 256H664.891V244.848H663.435V256ZM671.549 254.464L668.045 244.848H666.493L670.701 256H672.381L676.589 244.848H675.053L671.549 254.464ZM684.185 244.832H678.185V256H684.185V254.8H679.641V250.96H683.705V249.76H679.641V246.032H684.185V244.832ZM698.142 256H699.678L695.662 244.912H693.982L689.95 256H691.486L692.382 253.52H697.246L698.142 256ZM696.83 252.336H692.798L694.814 246.704L696.83 252.336ZM700.891 250.416C700.891 253.76 703.339 256.096 706.459 256.096C708.875 256.096 710.795 254.896 711.627 252.752H709.883C709.275 254.08 708.091 254.832 706.459 254.832C704.123 254.832 702.379 253.136 702.379 250.416C702.379 247.68 704.123 245.984 706.459 245.984C708.091 245.984 709.275 246.736 709.883 248.08H711.627C710.795 245.92 708.875 244.704 706.459 244.704C703.339 244.704 700.891 247.072 700.891 250.416ZM713.251 250.416C713.251 253.76 715.699 256.096 718.819 256.096C721.235 256.096 723.155 254.896 723.987 252.752H722.243C721.635 254.08 720.451 254.832 718.819 254.832C716.483 254.832 714.739 253.136 714.739 250.416C714.739 247.68 716.483 245.984 718.819 245.984C720.451 245.984 721.635 246.736 722.243 248.08H723.987C723.155 245.92 721.235 244.704 718.819 244.704C715.699 244.704 713.251 247.072 713.251 250.416ZM736.81 250.416C736.81 247.072 734.362 244.72 731.21 244.72C728.074 244.72 725.61 247.072 725.61 250.416C725.61 253.76 728.074 256.112 731.21 256.112C734.362 256.112 736.81 253.76 736.81 250.416ZM727.098 250.416C727.098 247.68 728.858 245.984 731.21 245.984C733.562 245.984 735.322 247.68 735.322 250.416C735.322 253.136 733.562 254.848 731.21 254.848C728.858 254.848 727.098 253.136 727.098 250.416ZM738.7 251.888C738.7 254.784 740.588 256.112 742.892 256.112C745.196 256.112 747.1 254.784 747.1 251.888V244.848H745.644V251.904C745.644 253.952 744.556 254.832 742.908 254.832C741.26 254.832 740.156 253.952 740.156 251.904V244.848H738.7V251.888ZM756.841 244.832V253.696L750.985 244.832H749.529V256H750.985V247.12L756.841 256H758.297V244.832H756.841ZM760.091 246.032H763.147V256H764.603V246.032H767.643V244.848H760.091V246.032ZM776.683 252.96C776.683 248.832 770.667 250.624 770.667 247.744C770.667 246.544 771.611 245.92 772.811 245.952C774.171 245.968 774.875 246.816 774.971 247.568H776.571C776.395 245.872 775.003 244.704 772.875 244.704C770.667 244.704 769.179 245.952 769.179 247.792C769.179 251.936 775.211 250.016 775.211 253.024C775.211 254.08 774.379 254.88 772.971 254.88C771.419 254.88 770.763 253.952 770.667 253.024H769.115C769.147 254.864 770.731 256.112 772.971 256.112C775.387 256.112 776.683 254.544 776.683 252.96Z" fill="#252B33"/>
<g filter="url(#filter3_d_1_155)">
<rect x="906" y="178" width="260" height="100" rx="10" fill="white"/>
</g>
<circle cx="1111" cy="178" r="35" fill="#71AA38"/>
<path d="M1113.6 171.67C1113.97 172.803 1115.03 173.569 1116.22 173.569H1124.64L1117.82 178.518C1116.86 179.218 1116.46 180.46 1116.83 181.593L1119.43 189.599L1112.62 184.65C1111.71 183.994 1110.51 183.953 1109.57 184.527L1109.38 184.65L1102.57 189.599L1105.17 181.593C1105.54 180.46 1105.14 179.218 1104.18 178.518L1097.36 173.569H1105.78C1106.97 173.569 1108.03 172.803 1108.4 171.67L1111 163.661L1113.6 171.67Z" stroke="white" stroke-width="3.5"/>
<path d="M923.733 227.62H942.505V223.212H931.295C935.703 219.488 941.897 214.472 941.897 208.05C941.897 203.224 938.895 199.69 932.929 199.69C927.951 199.69 923.885 202.616 923.695 208.962H928.863C928.901 206.036 930.307 204.212 932.853 204.212C935.475 204.212 936.577 205.884 936.577 208.354C936.577 213.446 930.003 218.348 923.733 223.668V227.62ZM945.858 213.788C945.858 221.882 948.29 227.924 956.118 227.924C963.946 227.924 966.378 221.882 966.378 213.788C966.378 205.77 963.946 199.766 956.118 199.766C948.29 199.766 945.858 205.77 945.858 213.788ZM961.134 213.788C961.134 218.728 960.602 222.984 956.118 222.984C951.634 222.984 951.102 218.728 951.102 213.788C951.102 209.038 951.634 204.706 956.118 204.706C960.602 204.706 961.134 209.038 961.134 213.788ZM970.424 213.788C970.424 221.882 972.856 227.924 980.684 227.924C988.512 227.924 990.944 221.882 990.944 213.788C990.944 205.77 988.512 199.766 980.684 199.766C972.856 199.766 970.424 205.77 970.424 213.788ZM985.7 213.788C985.7 218.728 985.168 222.984 980.684 222.984C976.2 222.984 975.668 218.728 975.668 213.788C975.668 209.038 976.2 204.706 980.684 204.706C985.168 204.706 985.7 209.038 985.7 213.788Z" fill="#252B33"/>
<path d="M922.95 246.032H926.006V256H927.462V246.032H930.502V244.848H922.95V246.032ZM942.951 250.416C942.951 247.072 940.503 244.72 937.351 244.72C934.215 244.72 931.751 247.072 931.751 250.416C931.751 253.76 934.215 256.112 937.351 256.112C940.503 256.112 942.951 253.76 942.951 250.416ZM933.239 250.416C933.239 247.68 934.999 245.984 937.351 245.984C939.703 245.984 941.463 247.68 941.463 250.416C941.463 253.136 939.703 254.848 937.351 254.848C934.999 254.848 933.239 253.136 933.239 250.416ZM944.185 246.032H947.241V256H948.697V246.032H951.737V244.848H944.185V246.032ZM961.017 256H962.553L958.537 244.912H956.857L952.825 256H954.361L955.257 253.52H960.121L961.017 256ZM959.705 252.336H955.673L957.689 246.704L959.705 252.336ZM964.31 244.848V256H969.67V254.816H965.766V244.848H964.31ZM982.97 256H984.506L980.49 244.912H978.81L974.778 256H976.314L977.21 253.52H982.074L982.97 256ZM981.658 252.336H977.626L979.642 246.704L981.658 252.336ZM987.719 250.144V246.048H989.863C991.527 246.048 992.231 246.816 992.231 248.112C992.231 249.36 991.527 250.144 989.863 250.144H987.719ZM993.719 248.112C993.719 246.288 992.487 244.848 989.863 244.848H986.263V256H987.719V251.344H989.863C992.631 251.344 993.719 249.808 993.719 248.112ZM996.985 250.144V246.048H999.129C1000.79 246.048 1001.5 246.816 1001.5 248.112C1001.5 249.36 1000.79 250.144 999.129 250.144H996.985ZM1002.98 248.112C1002.98 246.288 1001.75 244.848 999.129 244.848H995.529V256H996.985V251.344H999.129C1001.9 251.344 1002.98 249.808 1002.98 248.112ZM1015.03 248.128C1015.03 249.376 1014.31 250.272 1012.66 250.272H1010.52V246.048H1012.66C1014.32 246.048 1015.03 246.864 1015.03 248.128ZM1009.06 244.848V256H1010.52V251.44H1012.28L1014.93 256H1016.68L1013.88 251.328C1015.75 250.912 1016.53 249.552 1016.53 248.128C1016.53 246.304 1015.28 244.848 1012.66 244.848H1009.06ZM1026.28 256H1027.82L1023.8 244.912H1022.12L1018.09 256H1019.63L1020.52 253.52H1025.39L1026.28 256ZM1024.97 252.336H1020.94L1022.95 246.704L1024.97 252.336ZM1028.89 246.032H1031.94V256H1033.4V246.032H1036.44V244.848H1028.89V246.032ZM1044.23 244.832H1038.23V256H1044.23V254.8H1039.69V250.96H1043.75V249.76H1039.69V246.032H1044.23V244.832ZM1053.68 252.96C1053.68 248.832 1047.67 250.624 1047.67 247.744C1047.67 246.544 1048.61 245.92 1049.81 245.952C1051.17 245.968 1051.88 246.816 1051.97 247.568H1053.57C1053.4 245.872 1052 244.704 1049.88 244.704C1047.67 244.704 1046.18 245.952 1046.18 247.792C1046.18 251.936 1052.21 250.016 1052.21 253.024C1052.21 254.08 1051.38 254.88 1049.97 254.88C1048.42 254.88 1047.76 253.952 1047.67 253.024H1046.12C1046.15 254.864 1047.73 256.112 1049.97 256.112C1052.39 256.112 1053.68 254.544 1053.68 252.96Z" fill="#252B33"/>
<path d="M414.968 81H423.656L411.464 47.304H401.96L389.768 81H398.36L400.376 75.048H412.952L414.968 81ZM410.84 68.712H402.536L406.664 56.376L410.84 68.712ZM435.575 58.008V54.216H427.367V93.768H435.575V77.256C437.063 79.512 439.895 81.384 443.831 81.384C450.407 81.384 455.639 76.008 455.639 67.56C455.639 59.112 450.407 53.832 443.831 53.832C439.895 53.832 437.063 55.656 435.575 58.008ZM447.287 67.56C447.287 71.832 444.503 74.232 441.383 74.232C438.311 74.232 435.527 71.88 435.527 67.608C435.527 63.336 438.311 60.984 441.383 60.984C444.503 60.984 447.287 63.288 447.287 67.56ZM468.153 58.008V54.216H459.945V93.768H468.153V77.256C469.641 79.512 472.473 81.384 476.409 81.384C482.985 81.384 488.217 76.008 488.217 67.56C488.217 59.112 482.985 53.832 476.409 53.832C472.473 53.832 469.641 55.656 468.153 58.008ZM479.865 67.56C479.865 71.832 477.081 74.232 473.961 74.232C470.889 74.232 468.105 71.88 468.105 67.608C468.105 63.336 470.889 60.984 473.961 60.984C477.081 60.984 479.865 63.288 479.865 67.56ZM515.319 47.304H502.695V81H515.319C526.071 81 532.983 74.136 532.983 64.152C532.983 54.12 526.071 47.304 515.319 47.304ZM510.903 73.896V54.312H514.791C520.983 54.312 524.631 57.96 524.631 64.152C524.631 70.344 520.983 73.896 514.791 73.896H510.903ZM563.778 67.608C563.778 59.112 557.73 53.832 549.858 53.832C542.034 53.832 535.938 59.112 535.938 67.608C535.938 76.104 541.89 81.384 549.762 81.384C557.634 81.384 563.778 76.104 563.778 67.608ZM544.29 67.608C544.29 63.048 546.882 60.936 549.858 60.936C552.738 60.936 555.426 63.048 555.426 67.608C555.426 72.12 552.69 74.28 549.762 74.28C546.786 74.28 544.29 72.12 544.29 67.608ZM572.644 81H581.668L586.036 63.624L590.26 81H599.332L606.58 54.216H598.852L595.108 73.272L590.548 54.216H581.86L577.348 73.368L573.556 54.216H565.348L572.644 81ZM628.19 81H636.35V65.352C636.35 58.152 632.222 53.928 626.03 53.928C622.43 53.928 619.55 55.512 617.918 57.768V54.216H609.71V81H617.918V66.456C617.918 62.808 619.934 60.792 623.054 60.792C626.174 60.792 628.19 62.808 628.19 66.456V81ZM642.054 81H650.262V45.48H642.054V81ZM682.418 67.608C682.418 59.112 676.37 53.832 668.498 53.832C660.674 53.832 654.578 59.112 654.578 67.608C654.578 76.104 660.53 81.384 668.402 81.384C676.274 81.384 682.418 76.104 682.418 67.608ZM662.93 67.608C662.93 63.048 665.522 60.936 668.498 60.936C671.378 60.936 674.066 63.048 674.066 67.608C674.066 72.12 671.33 74.28 668.402 74.28C665.426 74.28 662.93 72.12 662.93 67.608ZM685.141 67.56C685.141 76.008 690.373 81.384 696.901 81.384C700.885 81.384 703.717 79.56 705.205 77.208V81H713.413V54.216H705.205V58.008C703.765 55.656 700.933 53.832 696.949 53.832C690.373 53.832 685.141 59.112 685.141 67.56ZM705.205 67.608C705.205 71.88 702.469 74.232 699.349 74.232C696.277 74.232 693.493 71.832 693.493 67.56C693.493 63.288 696.277 60.984 699.349 60.984C702.469 60.984 705.205 63.336 705.205 67.608ZM717.719 67.56C717.719 76.008 722.951 81.384 729.527 81.384C733.463 81.384 736.295 79.608 737.783 77.16V81H745.991V45.48H737.783V57.912C736.151 55.464 733.079 53.832 729.527 53.832C722.951 53.832 717.719 59.112 717.719 67.56ZM737.783 67.608C737.783 71.88 735.047 74.232 731.927 74.232C728.855 74.232 726.071 71.832 726.071 67.56C726.071 63.288 728.855 60.984 731.927 60.984C735.047 60.984 737.783 63.336 737.783 67.608Z" fill="#252B33"/>
<path d="M531.125 9.575V20H536.36V18.62H532.835V9.575H531.125ZM550.87 14.765C550.87 11.645 548.515 9.44 545.545 9.44C542.605 9.44 540.22 11.645 540.22 14.765C540.22 17.9 542.605 20.105 545.545 20.105C548.515 20.105 550.87 17.9 550.87 14.765ZM541.975 14.765C541.975 12.41 543.475 10.94 545.545 10.94C547.615 10.94 549.115 12.41 549.115 14.765C549.115 17.12 547.615 18.62 545.545 18.62C543.475 18.62 541.975 17.12 541.975 14.765ZM561.088 12.695C561.088 13.73 560.488 14.465 559.153 14.465H557.263V10.97H559.153C560.488 10.97 561.088 11.645 561.088 12.695ZM555.553 9.575V20H557.263V15.83H558.568L560.968 20H563.008L560.428 15.68C562.183 15.245 562.843 13.925 562.843 12.695C562.843 11 561.628 9.575 559.153 9.575H555.553ZM573.79 9.56H568.03V20H573.79V18.605H569.74V15.41H573.34V14.015H569.74V10.955H573.79V9.56ZM578.896 20H580.606V12.86L583.801 20H584.986L588.166 12.86V20H589.876V9.575H588.046L584.401 17.75L580.741 9.575H578.896V20ZM602.021 20H603.731V9.575H602.021V20ZM610.686 14.375V10.97H612.576C613.911 10.97 614.511 11.6 614.511 12.68C614.511 13.73 613.911 14.375 612.576 14.375H610.686ZM616.266 12.68C616.266 10.985 615.051 9.575 612.576 9.575H608.976V20H610.686V15.77H612.576C615.291 15.77 616.266 14.165 616.266 12.68ZM627.931 17.045C627.931 13.235 622.411 14.705 622.411 12.35C622.411 11.345 623.176 10.865 624.166 10.895C625.246 10.925 625.861 11.57 625.921 12.275H627.811C627.661 10.49 626.251 9.44 624.256 9.44C622.126 9.44 620.671 10.58 620.671 12.41C620.671 16.25 626.206 14.615 626.206 17.135C626.206 18.02 625.531 18.665 624.331 18.665C623.146 18.665 622.546 17.975 622.471 17.12H620.641C620.641 18.965 622.246 20.105 624.331 20.105C626.656 20.105 627.931 18.605 627.931 17.045ZM632.934 16.19C632.934 18.845 634.794 20.105 636.984 20.105C639.159 20.105 641.079 18.845 641.079 16.19V9.575H639.369V16.22C639.369 17.84 638.454 18.605 636.999 18.605C635.559 18.605 634.644 17.84 634.644 16.22V9.575H632.934V16.19ZM646.306 20H648.016V12.86L651.211 20H652.396L655.576 12.86V20H657.286V9.575H655.456L651.811 17.75L648.151 9.575H646.306V20Z" fill="#71AA38"/>
<path d="M533 26H663" stroke="#71AA38"/>
<defs>
<filter id="filter0_d_1_155" x="0" y="152" width="320" height="160" filterUnits="userSpaceOnUse" color-interpolation-filters="sRGB">
<feFlood flood-opacity="0" result="BackgroundImageFix"/>
<feColorMatrix in="SourceAlpha" type="matrix" values="0 0 0 0 0 0 0 0 0 0 0 0 0 0 0 0 0 0 127 0" result="hardAlpha"/>
<feOffset dy="4"/>
<feGaussianBlur stdDeviation="15"/>
<feComposite in2="hardAlpha" operator="out"/>
<feColorMatrix type="matrix" values="0 0 0 0 0 0 0 0 0 0 0 0 0 0 0 0 0 0 0.05 0"/>
<feBlend mode="normal" in2="BackgroundImageFix" result="effect1_dropShadow_1_155"/>
<feBlend mode="normal" in="SourceGraphic" in2="effect1_dropShadow_1_155" result="shape"/>
</filter>
<filter id="filter1_d_1_155" x="292" y="152" width="320" height="160" filterUnits="userSpaceOnUse" color-interpolation-filters="sRGB">
<feFlood flood-opacity="0" result="BackgroundImageFix"/>
<feColorMatrix in="SourceAlpha" type="matrix" values="0 0 0 0 0 0 0 0 0 0 0 0 0 0 0 0 0 0 127 0" result="hardAlpha"/>
<feOffset dy="4"/>
<feGaussianBlur stdDeviation="15"/>
<feComposite in2="hardAlpha" operator="out"/>
<feColorMatrix type="matrix" values="0 0 0 0 0 0 0 0 0 0 0 0 0 0 0 0 0 0 0.05 0"/>
<feBlend mode="normal" in2="BackgroundImageFix" result="effect1_dropShadow_1_155"/>
<feBlend mode="normal" in="SourceGraphic" in2="effect1_dropShadow_1_155" result="shape"/>
</filter>
<filter id="filter2_d_1_155" x="584" y="152" width="320" height="160" filterUnits="userSpaceOnUse" color-interpolation-filters="sRGB">
<feFlood flood-opacity="0" result="BackgroundImageFix"/>
<feColorMatrix in="SourceAlpha" type="matrix" values="0 0 0 0 0 0 0 0 0 0 0 0 0 0 0 0 0 0 127 0" result="hardAlpha"/>
<feOffset dy="4"/>
<feGaussianBlur stdDeviation="15"/>
<feComposite in2="hardAlpha" operator="out"/>
<feColorMatrix type="matrix" values="0 0 0 0 0 0 0 0 0 0 0 0 0 0 0 0 0 0 0.05 0"/>
<feBlend mode="normal" in2="BackgroundImageFix" result="effect1_dropShadow_1_155"/>
<feBlend mode="normal" in="SourceGraphic" in2="effect1_dropShadow_1_155" result="shape"/>
</filter>
<filter id="filter3_d_1_155" x="876" y="152" width="320" height="160" filterUnits="userSpaceOnUse" color-interpolation-filters="sRGB">
<feFlood flood-opacity="0" result="BackgroundImageFix"/>
<feColorMatrix in="SourceAlpha" type="matrix" values="0 0 0 0 0 0 0 0 0 0 0 0 0 0 0 0 0 0 127 0" result="hardAlpha"/>
<feOffset dy="4"/>
<feGaussianBlur stdDeviation="15"/>
<feComposite in2="hardAlpha" operator="out"/>
<feColorMatrix type="matrix" values="0 0 0 0 0 0 0 0 0 0 0 0 0 0 0 0 0 0 0.05 0"/>
<feBlend mode="normal" in2="BackgroundImageFix" result="effect1_dropShadow_1_155"/>
<feBlend mode="normal" in="SourceGraphic" in2="effect1_dropShadow_1_155" result="shape"/>
</filter>
</defs>
</svg>
