<svg width="36" height="54" viewBox="0 0 36 54" fill="none" xmlns="http://www.w3.org/2000/svg">
<path d="M13.9108 41.5157C9.01842 42.1839 5.5238 44.8909 5.5238 46.9613C5.5238 49.6061 11.2258 51.75 18.2597 51.75C25.2935 51.75 30.9955 49.6061 30.9955 46.9613C30.9955 44.7195 26.8984 41.8941 21.366 41.3727" stroke="#252B33" stroke-width="3.5"/>
<path d="M4.86382 28.2363C3.67323 26.5619 2.7793 24.651 2.26143 22.5851C1.92757 21.2532 1.75 19.8569 1.75 18.4181C1.75 9.21254 9.018 1.75 17.9835 1.75C26.9491 1.75 34.2171 9.21254 34.2171 18.4181C34.2171 19.8569 34.0395 21.2532 33.7056 22.5851C33.1878 24.651 32.2938 26.5619 31.1032 28.2363" stroke="#252B33" stroke-width="3.5"/>
<path d="M2.60449 23.5372C5.16768 30.7996 17.9836 47.0331 17.9836 47.0331C17.9836 47.0331 31.2268 29.9452 33.3628 23.5372" stroke="#252B33" stroke-width="3.5" stroke-linecap="round" stroke-linejoin="round"/>
<circle cx="17.7878" cy="16.8443" r="5.79717" stroke="#71AA38" stroke-width="3.5"/>
</svg>
