<svg width="146" height="95" viewBox="0 0 146 95" fill="none" xmlns="http://www.w3.org/2000/svg">
<g filter="url(#filter0_d_1_412)">
<rect x="56" y="26" width="60" height="35" rx="17.5" fill="white"/>
</g>
<path fill-rule="evenodd" clip-rule="evenodd" d="M75.3335 43.5833C75.3335 43.9464 75.4761 44.2945 75.7301 44.5512C75.984 44.8079 76.3284 44.9521 76.6875 44.9521H92.3751L86.561 50.827C86.4351 50.9543 86.3352 51.1054 86.2671 51.2717C86.199 51.4379 86.1639 51.6162 86.1639 51.7961C86.1639 51.9761 86.199 52.1543 86.2671 52.3206C86.3352 52.4869 86.4351 52.638 86.561 52.7652C86.6869 52.8925 86.8363 52.9935 87.0008 53.0623C87.1653 53.1312 87.3416 53.1667 87.5196 53.1667C87.6977 53.1667 87.874 53.1312 88.0384 53.0623C88.2029 52.9935 88.3524 52.8925 88.4783 52.7652L96.6024 44.5524C96.7285 44.4253 96.8285 44.2742 96.8968 44.1079C96.965 43.9417 97.0002 43.7634 97.0002 43.5833C97.0002 43.4033 96.965 43.225 96.8968 43.0587C96.8285 42.8924 96.7285 42.7414 96.6024 42.6142L88.4783 34.4014C88.224 34.1444 87.8792 34 87.5196 34C87.1601 34 86.8152 34.1444 86.561 34.4014C86.3067 34.6584 86.1639 35.007 86.1639 35.3705C86.1639 35.734 86.3067 36.0826 86.561 36.3396L92.3751 42.2145H76.6875C76.3284 42.2145 75.984 42.3587 75.7301 42.6154C75.4761 42.8721 75.3335 43.2203 75.3335 43.5833Z" fill="#71AA38"/>
<path fill-rule="evenodd" clip-rule="evenodd" d="M21.6667 44.1667C21.6667 44.5139 21.524 44.8469 21.2701 45.0925C21.0162 45.338 20.6718 45.476 20.3127 45.476H4.62503L10.4392 51.0954C10.5651 51.2171 10.6649 51.3617 10.7331 51.5207C10.8012 51.6798 10.8363 51.8502 10.8363 52.0224C10.8363 52.1945 10.8012 52.365 10.7331 52.5241C10.6649 52.6831 10.5651 52.8276 10.4392 52.9494C10.3133 53.0711 10.1638 53.1677 9.99934 53.2335C9.83486 53.2994 9.65857 53.3333 9.48053 53.3333C9.30249 53.3333 9.1262 53.2994 8.96171 53.2335C8.79723 53.1677 8.64778 53.0711 8.52189 52.9494L0.397793 45.0936C0.271698 44.972 0.171655 44.8275 0.103396 44.6685C0.0351357 44.5094 0 44.3389 0 44.1667C0 43.9945 0.0351357 43.8239 0.103396 43.6649C0.171655 43.5058 0.271698 43.3613 0.397793 43.2397L8.52189 35.384C8.77613 35.1381 9.12097 35 9.48053 35C9.84009 35 10.1849 35.1381 10.4392 35.384C10.6934 35.6298 10.8363 35.9633 10.8363 36.3109C10.8363 36.6586 10.6934 36.9921 10.4392 37.2379L4.62503 42.8574H20.3127C20.6718 42.8574 21.0162 42.9953 21.2701 43.2409C21.524 43.4864 21.6667 43.8194 21.6667 44.1667Z" fill="#71AA38"/>
<defs>
<filter id="filter0_d_1_412" x="26" y="0" width="120" height="95" filterUnits="userSpaceOnUse" color-interpolation-filters="sRGB">
<feFlood flood-opacity="0" result="BackgroundImageFix"/>
<feColorMatrix in="SourceAlpha" type="matrix" values="0 0 0 0 0 0 0 0 0 0 0 0 0 0 0 0 0 0 127 0" result="hardAlpha"/>
<feOffset dy="4"/>
<feGaussianBlur stdDeviation="15"/>
<feComposite in2="hardAlpha" operator="out"/>
<feColorMatrix type="matrix" values="0 0 0 0 0 0 0 0 0 0 0 0 0 0 0 0 0 0 0.05 0"/>
<feBlend mode="normal" in2="BackgroundImageFix" result="effect1_dropShadow_1_412"/>
<feBlend mode="normal" in="SourceGraphic" in2="effect1_dropShadow_1_412" result="shape"/>
</filter>
</defs>
</svg>
