<svg width="252" height="62" viewBox="0 0 252 62" fill="none" xmlns="http://www.w3.org/2000/svg">
<path d="M12.1433 24H15.3993L9.87727 8.622H6.29127L0.769266 24H4.00327L5.01527 21.074H11.1313L12.1433 24ZM10.2953 18.61H5.85127L8.07327 12.186L10.2953 18.61ZM17.4633 24H20.5433V7.72H17.4633V24ZM23.5864 24H26.6664V7.72H23.5864V24ZM29.7094 24H32.7894V17.268C32.7894 15.31 33.8674 14.254 35.5394 14.254C37.1674 14.254 38.2454 15.31 38.2454 17.268V24H41.3254V16.85C41.3254 13.484 39.3234 11.636 36.5734 11.636C34.9454 11.636 33.5814 12.296 32.7894 13.33V7.72H29.7094V24ZM43.4623 17.862C43.4623 21.668 45.9263 24.198 49.0063 24.198C50.9423 24.198 52.3283 23.274 53.0543 22.218V24H56.1563V11.812H53.0543V13.55C52.3283 12.538 50.9863 11.614 49.0283 11.614C45.9263 11.614 43.4623 14.056 43.4623 17.862ZM53.0543 17.906C53.0543 20.216 51.5143 21.492 49.8203 21.492C48.1703 21.492 46.6083 20.172 46.6083 17.862C46.6083 15.552 48.1703 14.32 49.8203 14.32C51.5143 14.32 53.0543 15.596 53.0543 17.906ZM59.1645 24H62.2445V7.72H59.1645V24ZM64.4955 17.862C64.4955 21.668 66.9595 24.198 70.0395 24.198C71.9755 24.198 73.3615 23.274 74.0875 22.218V24H77.1895V11.812H74.0875V13.55C73.3615 12.538 72.0195 11.614 70.0615 11.614C66.9595 11.614 64.4955 14.056 64.4955 17.862ZM74.0875 17.906C74.0875 20.216 72.5475 21.492 70.8535 21.492C69.2035 21.492 67.6415 20.172 67.6415 17.862C67.6415 15.552 69.2035 14.32 70.8535 14.32C72.5475 14.32 74.0875 15.596 74.0875 17.906ZM80.1977 24H83.2777V7.72H80.1977V24Z" fill="#71AA38"/>
<path d="M1.56013 53H3.01613V47.976H6.95213V46.792H3.01613V43.032H7.86413V41.848H1.56013V53ZM9.62263 53H11.0786V44.232H9.62263V53ZM10.3746 42.808C10.9026 42.808 11.3346 42.376 11.3346 41.816C11.3346 41.256 10.9026 40.824 10.3746 40.824C9.81463 40.824 9.38263 41.256 9.38263 41.816C9.38263 42.376 9.81463 42.808 10.3746 42.808ZM19.9761 53H21.4161V47.832C21.4161 45.32 19.8641 44.072 17.8321 44.072C16.6481 44.072 15.5921 44.568 15.0161 45.48V44.232H13.5601V53H15.0161V48.152C15.0161 46.264 16.0401 45.336 17.5281 45.336C19.0001 45.336 19.9761 46.248 19.9761 48.04V53ZM23.2505 48.584C23.2505 51.304 25.0585 53.144 27.3945 53.144C29.0105 53.144 30.1465 52.312 30.6745 51.368V53H32.1465V44.232H30.6745V45.832C30.1625 44.92 29.0425 44.088 27.4105 44.088C25.0585 44.088 23.2505 45.848 23.2505 48.584ZM30.6745 48.6C30.6745 50.664 29.2985 51.864 27.6985 51.864C26.0985 51.864 24.7385 50.648 24.7385 48.584C24.7385 46.52 26.0985 45.352 27.6985 45.352C29.2985 45.352 30.6745 46.568 30.6745 48.6ZM34.607 53H36.063V41.16H34.607V53ZM38.5445 53H40.0005V41.16H38.5445V53ZM45.81 51.336L43.058 44.232H41.442L44.978 52.904L43.25 57.128H44.754L50.034 44.232H48.53L45.81 51.336ZM63.2513 53H64.7873L60.7713 41.912H59.0913L55.0592 53H56.5953L57.4913 50.52H62.3553L63.2513 53ZM61.9393 49.336H57.9073L59.9233 43.704L61.9393 49.336ZM75.8661 41.72C72.7301 41.72 70.2661 44.072 70.2661 47.416C70.2661 50.76 72.7301 53.096 75.8661 53.096C78.8901 53.096 81.0821 50.872 81.3381 48.104V46.984H75.3381V48.168H79.7861C79.5621 50.376 78.0581 51.784 75.8661 51.784C73.5141 51.784 71.7541 50.088 71.7541 47.416C71.7541 44.728 73.5141 43.032 75.8661 43.032C77.4341 43.032 78.6501 43.784 79.2581 45.08H81.0021C80.1701 42.936 78.2181 41.72 75.8661 41.72ZM84.7193 48.232C84.7193 46.2 85.7753 45.576 87.1673 45.576H87.5513V44.072C86.1593 44.072 85.2153 44.68 84.7193 45.656V44.232H83.2633V53H84.7193V48.232ZM92.96 45.32C94.464 45.32 95.744 46.264 95.728 47.976H90.192C90.352 46.264 91.536 45.32 92.96 45.32ZM97.056 50.296H95.488C95.168 51.24 94.336 51.912 93.024 51.912C91.536 51.912 90.288 50.936 90.176 49.16H97.184C97.216 48.856 97.232 48.6 97.232 48.28C97.232 45.88 95.568 44.088 93.024 44.088C90.464 44.088 88.688 45.832 88.688 48.6C88.688 51.384 90.528 53.144 93.024 53.144C95.2 53.144 96.608 51.896 97.056 50.296ZM98.6099 48.584C98.6099 51.304 100.418 53.144 102.754 53.144C104.37 53.144 105.506 52.312 106.034 51.368V53H107.506V44.232H106.034V45.832C105.522 44.92 104.402 44.088 102.77 44.088C100.418 44.088 98.6099 45.848 98.6099 48.584ZM106.034 48.6C106.034 50.664 104.658 51.864 103.058 51.864C101.458 51.864 100.098 50.648 100.098 48.584C100.098 46.52 101.458 45.352 103.058 45.352C104.658 45.352 106.034 46.568 106.034 48.6ZM110.286 50.6C110.286 52.36 111.166 53 112.718 53H114.03V51.768H112.958C112.062 51.768 111.742 51.464 111.742 50.6V45.432H114.03V44.232H111.742V42.024H110.286V44.232H109.15V45.432H110.286V50.6ZM127.548 53H129.084L125.068 41.912H123.388L119.356 53H120.892L121.788 50.52H126.652L127.548 53ZM126.236 49.336H122.204L124.22 43.704L126.236 49.336ZM132.297 45.848V44.232H130.841V57.16H132.297V51.384C132.841 52.28 133.977 53.144 135.577 53.144C137.929 53.144 139.737 51.304 139.737 48.584C139.737 45.848 137.929 44.088 135.577 44.088C133.977 44.088 132.825 44.92 132.297 45.848ZM138.249 48.584C138.249 50.648 136.889 51.864 135.273 51.864C133.689 51.864 132.297 50.664 132.297 48.6C132.297 46.568 133.689 45.352 135.273 45.352C136.889 45.352 138.249 46.52 138.249 48.584ZM143.11 45.848V44.232H141.654V57.16H143.11V51.384C143.654 52.28 144.79 53.144 146.39 53.144C148.742 53.144 150.55 51.304 150.55 48.584C150.55 45.848 148.742 44.088 146.39 44.088C144.79 44.088 143.638 44.92 143.11 45.848ZM149.062 48.584C149.062 50.648 147.702 51.864 146.086 51.864C144.502 51.864 143.11 50.664 143.11 48.6C143.11 46.568 144.502 45.352 146.086 45.352C147.702 45.352 149.062 46.52 149.062 48.584ZM158.988 53.016L160.604 53L163.292 44.024L165.884 53H167.516L170.748 41.848H169.18L166.732 51.272L164.172 41.848H162.54L159.852 51.304L157.42 41.848H155.868L158.988 53.016ZM172.341 53H173.797V44.232H172.341V53ZM173.093 42.808C173.621 42.808 174.053 42.376 174.053 41.816C174.053 41.256 173.621 40.824 173.093 40.824C172.533 40.824 172.101 41.256 172.101 41.816C172.101 42.376 172.533 42.808 173.093 42.808ZM176.599 50.6C176.599 52.36 177.479 53 179.031 53H180.343V51.768H179.271C178.375 51.768 178.055 51.464 178.055 50.6V45.432H180.343V44.232H178.055V42.024H176.599V44.232H175.463V45.432H176.599V50.6ZM182.107 53H183.563V48.152C183.563 46.264 184.587 45.336 186.075 45.336C187.547 45.336 188.523 46.248 188.523 48.04V53H189.963V47.832C189.963 45.32 188.411 44.072 186.459 44.072C185.227 44.072 184.139 44.568 183.563 45.496V41.16H182.107V53ZM200.783 51.464L197.279 41.848H195.727L199.935 53H201.615L205.823 41.848H204.287L200.783 51.464ZM206.876 48.584C206.876 51.304 208.684 53.144 211.02 53.144C212.636 53.144 213.772 52.312 214.3 51.368V53H215.772V44.232H214.3V45.832C213.788 44.92 212.668 44.088 211.036 44.088C208.684 44.088 206.876 45.848 206.876 48.584ZM214.3 48.6C214.3 50.664 212.924 51.864 211.324 51.864C209.724 51.864 208.364 50.648 208.364 48.584C208.364 46.52 209.724 45.352 211.324 45.352C212.924 45.352 214.3 46.568 214.3 48.6ZM219.688 48.232C219.688 46.2 220.744 45.576 222.136 45.576H222.52V44.072C221.128 44.072 220.184 44.68 219.688 45.656V44.232H218.232V53H219.688V48.232ZM224.201 53H225.657V44.232H224.201V53ZM224.953 42.808C225.481 42.808 225.913 42.376 225.913 41.816C225.913 41.256 225.481 40.824 224.953 40.824C224.393 40.824 223.961 41.256 223.961 41.816C223.961 42.376 224.393 42.808 224.953 42.808ZM231.866 45.32C233.37 45.32 234.65 46.264 234.634 47.976H229.098C229.258 46.264 230.442 45.32 231.866 45.32ZM235.962 50.296H234.394C234.074 51.24 233.242 51.912 231.93 51.912C230.442 51.912 229.194 50.936 229.082 49.16H236.09C236.122 48.856 236.138 48.6 236.138 48.28C236.138 45.88 234.474 44.088 231.93 44.088C229.37 44.088 227.594 45.832 227.594 48.6C227.594 51.384 229.434 53.144 231.93 53.144C234.106 53.144 235.514 51.896 235.962 50.296ZM238.38 50.6C238.38 52.36 239.26 53 240.812 53H242.124V51.768H241.052C240.156 51.768 239.836 51.464 239.836 50.6V45.432H242.124V44.232H239.836V42.024H238.38V44.232H237.244V45.432H238.38V50.6ZM247.216 51.336L244.464 44.232H242.848L246.384 52.904L244.656 57.128H246.16L251.44 44.232H249.936L247.216 51.336Z" fill="#828282"/>
</svg>
