<svg width="51" height="51" viewBox="0 0 51 51" fill="none" xmlns="http://www.w3.org/2000/svg">
<path d="M9.8926 46.7237L12.5882 46.4734C16.3238 46.1269 19.8071 49.2135 23.273 48.8917C27.0596 48.5459 37.1496 41.6789 47.6275 34.8412C48.3074 34.3979 48.5566 33.4604 48.1427 32.7427C46.0086 29.0372 42.6359 27.9086 39.8748 29.2069L30.8536 33.5944C29.9401 31.9282 28.5567 30.1924 25.9018 30.6689L18.0192 32.1622C15.2816 32.3962 13.365 29.9051 10.7014 30.1521L8.94922 30.3793" stroke="#252B33" stroke-width="3.5"/>
<path d="M31.4555 33.6013C28.7814 34.868 22.5889 38.668 20.0555 38.668" stroke="#252B33" stroke-width="3.5" stroke-linecap="round"/>
<path d="M8.38379 28.9298V47.9064H1.75V28.9298H8.38379Z" stroke="#252B33" stroke-width="3.5"/>
<path d="M27.4715 1.75V7.81934C27.0727 7.74752 26.6589 7.78427 26.2752 7.92969L24.9236 8.44141L23.5731 7.92969L23.3777 7.86621C23.051 7.77542 22.7088 7.75957 22.3768 7.81934V1.75H27.4715Z" stroke="#71AA38" stroke-width="3.5" stroke-linejoin="round"/>
<rect x="13.7823" y="1.75" width="22.2836" height="22.2836" rx="3.25" stroke="#71AA38" stroke-width="3.5"/>
</svg>
